<svg width="3600" height="175" viewBox="0 0 3600 175" fill="none" xmlns="http://www.w3.org/2000/svg">
<g clip-path="url(#clip0_144_2678)">
<circle cx="3362.5" cy="62.5" r="12.5" transform="rotate(-180 3362.5 62.5)" fill="#282828"/>
<circle cx="3362.5" cy="12.5" r="12.5" transform="rotate(-180 3362.5 12.5)" fill="#282828"/>
<circle cx="3312.5" cy="62.5" r="12.5" transform="rotate(-180 3312.5 62.5)" fill="#282828"/>
<circle cx="3312.5" cy="12.5" r="12.5" transform="rotate(-180 3312.5 12.5)" fill="#282828"/>
<circle cx="3362.5" cy="162.5" r="12.5" transform="rotate(-180 3362.5 162.5)" fill="#282828"/>
<circle cx="3362.5" cy="112.5" r="12.5" transform="rotate(-180 3362.5 112.5)" fill="#282828"/>
<circle cx="3312.5" cy="162.5" r="12.5" transform="rotate(-180 3312.5 162.5)" fill="#282828"/>
<circle cx="3312.5" cy="112.5" r="12.5" transform="rotate(-180 3312.5 112.5)" fill="#282828"/>
<circle cx="3562.5" cy="112.5" r="12.5" transform="rotate(-180 3562.5 112.5)" fill="#282828"/>
<circle cx="3562.5" cy="62.5" r="12.5" transform="rotate(-180 3562.5 62.5)" fill="#282828"/>
<circle cx="3512.5" cy="112.5" r="12.5" transform="rotate(-180 3512.5 112.5)" fill="#282828"/>
<circle cx="3512.5" cy="62.5" r="12.5" transform="rotate(-180 3512.5 62.5)" fill="#282828"/>
<rect x="3575" y="112" width="25" height="50" transform="rotate(-180 3575 112)" fill="#282828"/>
<circle cx="3412.5" cy="62.5" r="12.5" fill="#282828"/>
<circle cx="3412.5" cy="112.5" r="12.5" fill="#282828"/>
<circle cx="3462.5" cy="62.5" r="12.5" fill="#282828"/>
<circle cx="3462.5" cy="112.5" r="12.5" fill="#FFAA00"/>
<rect x="3400" y="63" width="25" height="50" fill="#282828"/>
<circle cx="3462.5" cy="162.5" r="12.5" transform="rotate(90 3462.5 162.5)" fill="#282828"/>
<circle cx="3412.5" cy="162.5" r="12.5" transform="rotate(90 3412.5 162.5)" fill="#282828"/>
<rect x="3462" y="150" width="25" height="50" transform="rotate(90 3462 150)" fill="#282828"/>
<circle cx="3562.5" cy="162.5" r="12.5" transform="rotate(90 3562.5 162.5)" fill="#282828"/>
<circle cx="3512.5" cy="162.5" r="12.5" transform="rotate(90 3512.5 162.5)" fill="#282828"/>
<rect x="3562" y="150" width="25" height="50" transform="rotate(90 3562 150)" fill="#282828"/>
<circle cx="3562.5" cy="12.5" r="12.5" transform="rotate(90 3562.5 12.5)" fill="#282828"/>
<circle cx="3512.5" cy="12.5" r="12.5" transform="rotate(90 3512.5 12.5)" fill="#282828"/>
<rect x="3562" width="25" height="50" transform="rotate(90 3562 0)" fill="#282828"/>
<circle cx="3462.5" cy="12.5" r="12.5" transform="rotate(90 3462.5 12.5)" fill="#282828"/>
<circle cx="3412.5" cy="12.5" r="12.5" transform="rotate(90 3412.5 12.5)" fill="#282828"/>
<rect x="3462" width="25" height="50" transform="rotate(90 3462 0)" fill="#282828"/>
<circle cx="2762.5" cy="62.5" r="12.5" transform="rotate(-180 2762.5 62.5)" fill="#282828"/>
<circle cx="2762.5" cy="12.5" r="12.5" transform="rotate(-180 2762.5 12.5)" fill="#282828"/>
<circle cx="2712.5" cy="62.5" r="12.5" transform="rotate(-180 2712.5 62.5)" fill="#282828"/>
<circle cx="2712.5" cy="12.5" r="12.5" transform="rotate(-180 2712.5 12.5)" fill="#282828"/>
<circle cx="2762.5" cy="162.5" r="12.5" transform="rotate(-180 2762.5 162.5)" fill="#282828"/>
<circle cx="2762.5" cy="112.5" r="12.5" transform="rotate(-180 2762.5 112.5)" fill="#282828"/>
<circle cx="2712.5" cy="162.5" r="12.5" transform="rotate(-180 2712.5 162.5)" fill="#282828"/>
<circle cx="2712.5" cy="112.5" r="12.5" transform="rotate(-180 2712.5 112.5)" fill="#282828"/>
<circle cx="2962.5" cy="112.5" r="12.5" transform="rotate(-180 2962.5 112.5)" fill="#282828"/>
<circle cx="2962.5" cy="62.5" r="12.5" transform="rotate(-180 2962.5 62.5)" fill="#282828"/>
<circle cx="2912.5" cy="112.5" r="12.5" transform="rotate(-180 2912.5 112.5)" fill="#282828"/>
<circle cx="2912.5" cy="62.5" r="12.5" transform="rotate(-180 2912.5 62.5)" fill="#282828"/>
<rect x="2975" y="112" width="25" height="50" transform="rotate(-180 2975 112)" fill="#282828"/>
<circle cx="2812.5" cy="62.5" r="12.5" fill="#282828"/>
<circle cx="2812.5" cy="112.5" r="12.5" fill="#282828"/>
<circle cx="2862.5" cy="62.5" r="12.5" fill="#282828"/>
<circle cx="2862.5" cy="112.5" r="12.5" fill="#282828"/>
<rect x="2800" y="63" width="25" height="50" fill="#282828"/>
<circle cx="2862.5" cy="162.5" r="12.5" transform="rotate(90 2862.5 162.5)" fill="#282828"/>
<circle cx="2812.5" cy="162.5" r="12.5" transform="rotate(90 2812.5 162.5)" fill="#282828"/>
<rect x="2862" y="150" width="25" height="50" transform="rotate(90 2862 150)" fill="#282828"/>
<circle cx="2962.5" cy="162.5" r="12.5" transform="rotate(90 2962.5 162.5)" fill="#282828"/>
<circle cx="2912.5" cy="162.5" r="12.5" transform="rotate(90 2912.5 162.5)" fill="#282828"/>
<rect x="2962" y="150" width="25" height="50" transform="rotate(90 2962 150)" fill="#282828"/>
<circle cx="2962.5" cy="12.5" r="12.5" transform="rotate(90 2962.5 12.5)" fill="#282828"/>
<circle cx="2912.5" cy="12.5" r="12.5" transform="rotate(90 2912.5 12.5)" fill="#282828"/>
<rect x="2962" width="25" height="50" transform="rotate(90 2962 0)" fill="#282828"/>
<circle cx="2862.5" cy="12.5" r="12.5" transform="rotate(90 2862.5 12.5)" fill="#282828"/>
<circle cx="2812.5" cy="12.5" r="12.5" transform="rotate(90 2812.5 12.5)" fill="#282828"/>
<rect x="2862" width="25" height="50" transform="rotate(90 2862 0)" fill="#282828"/>
<circle cx="2162.5" cy="62.4999" r="12.5" transform="rotate(-180 2162.5 62.4999)" fill="#282828"/>
<circle cx="2162.5" cy="12.4999" r="12.5" transform="rotate(-180 2162.5 12.4999)" fill="#282828"/>
<circle cx="2112.5" cy="62.4999" r="12.5" transform="rotate(-180 2112.5 62.4999)" fill="#282828"/>
<circle cx="2112.5" cy="12.4999" r="12.5" transform="rotate(-180 2112.5 12.4999)" fill="#282828"/>
<circle cx="2162.5" cy="162.5" r="12.5" transform="rotate(-180 2162.5 162.5)" fill="#282828"/>
<circle cx="2162.5" cy="112.5" r="12.5" transform="rotate(-180 2162.5 112.5)" fill="#282828"/>
<circle cx="2112.5" cy="162.5" r="12.5" transform="rotate(-180 2112.5 162.5)" fill="#282828"/>
<circle cx="2112.5" cy="112.5" r="12.5" transform="rotate(-180 2112.5 112.5)" fill="#282828"/>
<circle cx="2362.5" cy="112.5" r="12.5" transform="rotate(-180 2362.5 112.5)" fill="#282828"/>
<circle cx="2362.5" cy="62.4999" r="12.5" transform="rotate(-180 2362.5 62.4999)" fill="#282828"/>
<circle cx="2312.5" cy="112.5" r="12.5" transform="rotate(-180 2312.5 112.5)" fill="#282828"/>
<circle cx="2312.5" cy="62.4999" r="12.5" transform="rotate(-180 2312.5 62.4999)" fill="#282828"/>
<rect x="2375" y="112" width="25" height="50" transform="rotate(-180 2375 112)" fill="#282828"/>
<circle cx="2212.5" cy="62.4999" r="12.5" fill="#282828"/>
<circle cx="2212.5" cy="112.5" r="12.5" fill="#282828"/>
<circle cx="2262.5" cy="62.4999" r="12.5" fill="#FFAA00"/>
<circle cx="2262.5" cy="112.5" r="12.5" fill="#282828"/>
<rect x="2200" y="62.9999" width="25" height="50" fill="#282828"/>
<circle cx="2262.5" cy="162.5" r="12.5" transform="rotate(90 2262.5 162.5)" fill="#282828"/>
<circle cx="2212.5" cy="162.5" r="12.5" transform="rotate(90 2212.5 162.5)" fill="#282828"/>
<rect x="2262" y="150" width="25" height="50" transform="rotate(90 2262 150)" fill="#282828"/>
<circle cx="2362.5" cy="162.5" r="12.5" transform="rotate(90 2362.5 162.5)" fill="#282828"/>
<circle cx="2312.5" cy="162.5" r="12.5" transform="rotate(90 2312.5 162.5)" fill="#282828"/>
<rect x="2362" y="150" width="25" height="50" transform="rotate(90 2362 150)" fill="#282828"/>
<circle cx="2362.5" cy="12.4999" r="12.5" transform="rotate(90 2362.5 12.4999)" fill="#282828"/>
<circle cx="2312.5" cy="12.4999" r="12.5" transform="rotate(90 2312.5 12.4999)" fill="#282828"/>
<rect x="2362" y="-0.00012207" width="25" height="50" transform="rotate(90 2362 -0.00012207)" fill="#282828"/>
<circle cx="2262.5" cy="12.4999" r="12.5" transform="rotate(90 2262.5 12.4999)" fill="#282828"/>
<circle cx="2212.5" cy="12.4999" r="12.5" transform="rotate(90 2212.5 12.4999)" fill="#282828"/>
<rect x="2262" y="-0.00012207" width="25" height="50" transform="rotate(90 2262 -0.00012207)" fill="#282828"/>
<circle cx="1862.5" cy="62.4999" r="12.5" transform="rotate(-180 1862.5 62.4999)" fill="#282828"/>
<circle cx="1862.5" cy="12.4999" r="12.5" transform="rotate(-180 1862.5 12.4999)" fill="#282828"/>
<circle cx="1812.5" cy="62.4999" r="12.5" transform="rotate(-180 1812.5 62.4999)" fill="#282828"/>
<circle cx="1812.5" cy="12.4999" r="12.5" transform="rotate(-180 1812.5 12.4999)" fill="#282828"/>
<circle cx="1862.5" cy="162.5" r="12.5" transform="rotate(-180 1862.5 162.5)" fill="#282828"/>
<circle cx="1862.5" cy="112.5" r="12.5" transform="rotate(-180 1862.5 112.5)" fill="#282828"/>
<circle cx="1812.5" cy="162.5" r="12.5" transform="rotate(-180 1812.5 162.5)" fill="#282828"/>
<circle cx="1812.5" cy="112.5" r="12.5" transform="rotate(-180 1812.5 112.5)" fill="#282828"/>
<circle cx="2062.5" cy="112.5" r="12.5" transform="rotate(-180 2062.5 112.5)" fill="#282828"/>
<circle cx="2062.5" cy="62.4999" r="12.5" transform="rotate(-180 2062.5 62.4999)" fill="#282828"/>
<circle cx="2012.5" cy="112.5" r="12.5" transform="rotate(-180 2012.5 112.5)" fill="#282828"/>
<circle cx="2012.5" cy="62.4999" r="12.5" transform="rotate(-180 2012.5 62.4999)" fill="#282828"/>
<rect x="2075" y="112" width="25" height="50" transform="rotate(-180 2075 112)" fill="#282828"/>
<circle cx="1912.5" cy="62.4999" r="12.5" fill="#282828"/>
<circle cx="1912.5" cy="112.5" r="12.5" fill="#282828"/>
<circle cx="1962.5" cy="62.4999" r="12.5" fill="#282828"/>
<circle cx="1962.5" cy="112.5" r="12.5" fill="#282828"/>
<rect x="1900" y="62.9999" width="25" height="50" fill="#282828"/>
<circle cx="1962.5" cy="162.5" r="12.5" transform="rotate(90 1962.5 162.5)" fill="#282828"/>
<circle cx="1912.5" cy="162.5" r="12.5" transform="rotate(90 1912.5 162.5)" fill="#282828"/>
<rect x="1962" y="150" width="25" height="50" transform="rotate(90 1962 150)" fill="#282828"/>
<circle cx="2062.5" cy="162.5" r="12.5" transform="rotate(90 2062.5 162.5)" fill="#282828"/>
<circle cx="2012.5" cy="162.5" r="12.5" transform="rotate(90 2012.5 162.5)" fill="#282828"/>
<rect x="2062" y="150" width="25" height="50" transform="rotate(90 2062 150)" fill="#282828"/>
<circle cx="2062.5" cy="12.4999" r="12.5" transform="rotate(90 2062.5 12.4999)" fill="#282828"/>
<circle cx="2012.5" cy="12.4999" r="12.5" transform="rotate(90 2012.5 12.4999)" fill="#282828"/>
<rect x="2062" y="-0.00012207" width="25" height="50" transform="rotate(90 2062 -0.00012207)" fill="#282828"/>
<circle cx="1962.5" cy="12.4999" r="12.5" transform="rotate(90 1962.5 12.4999)" fill="#FFAA00"/>
<circle cx="1912.5" cy="12.4999" r="12.5" transform="rotate(90 1912.5 12.4999)" fill="#FFAA00"/>
<rect x="1962" y="-0.00012207" width="25" height="50" transform="rotate(90 1962 -0.00012207)" fill="#FFAA00"/>
<circle cx="2462.5" cy="62.4999" r="12.5" transform="rotate(-180 2462.5 62.4999)" fill="#282828"/>
<circle cx="2462.5" cy="12.4999" r="12.5" transform="rotate(-180 2462.5 12.4999)" fill="#282828"/>
<circle cx="2412.5" cy="62.4999" r="12.5" transform="rotate(-180 2412.5 62.4999)" fill="#282828"/>
<circle cx="2412.5" cy="12.4999" r="12.5" transform="rotate(-180 2412.5 12.4999)" fill="#282828"/>
<circle cx="2462.5" cy="162.5" r="12.5" transform="rotate(-180 2462.5 162.5)" fill="#282828"/>
<circle cx="2462.5" cy="112.5" r="12.5" transform="rotate(-180 2462.5 112.5)" fill="#282828"/>
<circle cx="2412.5" cy="162.5" r="12.5" transform="rotate(-180 2412.5 162.5)" fill="#282828"/>
<circle cx="2412.5" cy="112.5" r="12.5" transform="rotate(-180 2412.5 112.5)" fill="#282828"/>
<circle cx="2662.5" cy="112.5" r="12.5" transform="rotate(-180 2662.5 112.5)" fill="#FFAA00"/>
<circle cx="2662.5" cy="62.4999" r="12.5" transform="rotate(-180 2662.5 62.4999)" fill="#FFAA00"/>
<circle cx="2612.5" cy="112.5" r="12.5" transform="rotate(-180 2612.5 112.5)" fill="#282828"/>
<circle cx="2612.5" cy="62.4999" r="12.5" transform="rotate(-180 2612.5 62.4999)" fill="#282828"/>
<rect x="2675" y="112" width="25" height="50" transform="rotate(-180 2675 112)" fill="#FFAA00"/>
<circle cx="2512.5" cy="62.4999" r="12.5" fill="#282828"/>
<circle cx="2512.5" cy="112.5" r="12.5" fill="#282828"/>
<circle cx="2562.5" cy="62.4999" r="12.5" fill="#282828"/>
<circle cx="2562.5" cy="112.5" r="12.5" fill="#282828"/>
<rect x="2500" y="62.9999" width="25" height="50" fill="#282828"/>
<circle cx="2562.5" cy="162.5" r="12.5" transform="rotate(90 2562.5 162.5)" fill="#FFAA00"/>
<circle cx="2512.5" cy="162.5" r="12.5" transform="rotate(90 2512.5 162.5)" fill="#FFAA00"/>
<rect x="2562" y="150" width="25" height="50" transform="rotate(90 2562 150)" fill="#FFAA00"/>
<circle cx="2662.5" cy="162.5" r="12.5" transform="rotate(90 2662.5 162.5)" fill="#282828"/>
<circle cx="2612.5" cy="162.5" r="12.5" transform="rotate(90 2612.5 162.5)" fill="#282828"/>
<rect x="2662" y="150" width="25" height="50" transform="rotate(90 2662 150)" fill="#282828"/>
<circle cx="2662.5" cy="12.4999" r="12.5" transform="rotate(90 2662.5 12.4999)" fill="#282828"/>
<circle cx="2612.5" cy="12.4999" r="12.5" transform="rotate(90 2612.5 12.4999)" fill="#282828"/>
<rect x="2662" y="-0.00012207" width="25" height="50" transform="rotate(90 2662 -0.00012207)" fill="#282828"/>
<circle cx="2562.5" cy="12.4999" r="12.5" transform="rotate(90 2562.5 12.4999)" fill="#282828"/>
<circle cx="2512.5" cy="12.4999" r="12.5" transform="rotate(90 2512.5 12.4999)" fill="#282828"/>
<rect x="2562" y="-0.00012207" width="25" height="50" transform="rotate(90 2562 -0.00012207)" fill="#282828"/>
<circle cx="3062.5" cy="62.5" r="12.5" transform="rotate(-180 3062.5 62.5)" fill="#282828"/>
<circle cx="3062.5" cy="12.5" r="12.5" transform="rotate(-180 3062.5 12.5)" fill="#282828"/>
<circle cx="3012.5" cy="62.5" r="12.5" transform="rotate(-180 3012.5 62.5)" fill="#282828"/>
<circle cx="3012.5" cy="12.5" r="12.5" transform="rotate(-180 3012.5 12.5)" fill="#282828"/>
<circle cx="3062.5" cy="162.5" r="12.5" transform="rotate(-180 3062.5 162.5)" fill="#282828"/>
<circle cx="3062.5" cy="112.5" r="12.5" transform="rotate(-180 3062.5 112.5)" fill="#282828"/>
<circle cx="3012.5" cy="162.5" r="12.5" transform="rotate(-180 3012.5 162.5)" fill="#282828"/>
<circle cx="3012.5" cy="112.5" r="12.5" transform="rotate(-180 3012.5 112.5)" fill="#282828"/>
<circle cx="3262.5" cy="112.5" r="12.5" transform="rotate(-180 3262.5 112.5)" fill="#282828"/>
<circle cx="3262.5" cy="62.5" r="12.5" transform="rotate(-180 3262.5 62.5)" fill="#282828"/>
<circle cx="3212.5" cy="112.5" r="12.5" transform="rotate(-180 3212.5 112.5)" fill="#282828"/>
<circle cx="3212.5" cy="62.5" r="12.5" transform="rotate(-180 3212.5 62.5)" fill="#282828"/>
<rect x="3275" y="112" width="25" height="50" transform="rotate(-180 3275 112)" fill="#282828"/>
<circle cx="3112.5" cy="62.5" r="12.5" fill="#282828"/>
<circle cx="3112.5" cy="112.5" r="12.5" fill="#282828"/>
<circle cx="3162.5" cy="62.5" r="12.5" fill="#282828"/>
<circle cx="3162.5" cy="112.5" r="12.5" fill="#282828"/>
<rect x="3100" y="63" width="25" height="50" fill="#282828"/>
<circle cx="3162.5" cy="162.5" r="12.5" transform="rotate(90 3162.5 162.5)" fill="#282828"/>
<circle cx="3112.5" cy="162.5" r="12.5" transform="rotate(90 3112.5 162.5)" fill="#282828"/>
<rect x="3162" y="150" width="25" height="50" transform="rotate(90 3162 150)" fill="#282828"/>
<circle cx="3262.5" cy="162.5" r="12.5" transform="rotate(90 3262.5 162.5)" fill="#282828"/>
<circle cx="3212.5" cy="162.5" r="12.5" transform="rotate(90 3212.5 162.5)" fill="#282828"/>
<rect x="3262" y="150" width="25" height="50" transform="rotate(90 3262 150)" fill="#282828"/>
<circle cx="3262.5" cy="12.5" r="12.5" transform="rotate(90 3262.5 12.5)" fill="#282828"/>
<circle cx="3212.5" cy="12.5" r="12.5" transform="rotate(90 3212.5 12.5)" fill="#282828"/>
<rect x="3262" width="25" height="50" transform="rotate(90 3262 0)" fill="#282828"/>
<circle cx="3162.5" cy="12.5" r="12.5" transform="rotate(90 3162.5 12.5)" fill="#FFAA00"/>
<circle cx="3112.5" cy="12.5" r="12.5" transform="rotate(90 3112.5 12.5)" fill="#FFAA00"/>
<rect x="3162" width="25" height="50" transform="rotate(90 3162 0)" fill="#FFAA00"/>
<circle cx="1562.5" cy="62.4998" r="12.5" transform="rotate(-180 1562.5 62.4998)" fill="#282828"/>
<circle cx="1562.5" cy="12.4998" r="12.5" transform="rotate(-180 1562.5 12.4998)" fill="#282828"/>
<circle cx="1512.5" cy="62.4998" r="12.5" transform="rotate(-180 1512.5 62.4998)" fill="#282828"/>
<circle cx="1512.5" cy="12.4998" r="12.5" transform="rotate(-180 1512.5 12.4998)" fill="#282828"/>
<circle cx="1562.5" cy="162.5" r="12.5" transform="rotate(-180 1562.5 162.5)" fill="#282828"/>
<circle cx="1562.5" cy="112.5" r="12.5" transform="rotate(-180 1562.5 112.5)" fill="#282828"/>
<circle cx="1512.5" cy="162.5" r="12.5" transform="rotate(-180 1512.5 162.5)" fill="#282828"/>
<circle cx="1512.5" cy="112.5" r="12.5" transform="rotate(-180 1512.5 112.5)" fill="#282828"/>
<circle cx="1762.5" cy="112.5" r="12.5" transform="rotate(-180 1762.5 112.5)" fill="#282828"/>
<circle cx="1762.5" cy="62.4998" r="12.5" transform="rotate(-180 1762.5 62.4998)" fill="#282828"/>
<circle cx="1712.5" cy="112.5" r="12.5" transform="rotate(-180 1712.5 112.5)" fill="#282828"/>
<circle cx="1712.5" cy="62.4998" r="12.5" transform="rotate(-180 1712.5 62.4998)" fill="#282828"/>
<rect x="1775" y="112" width="25" height="50" transform="rotate(-180 1775 112)" fill="#282828"/>
<circle cx="1612.5" cy="62.4998" r="12.5" fill="#FFAA00"/>
<circle cx="1612.5" cy="112.5" r="12.5" fill="#FFAA00"/>
<circle cx="1662.5" cy="62.4998" r="12.5" fill="#282828"/>
<circle cx="1662.5" cy="112.5" r="12.5" fill="#282828"/>
<rect x="1600" y="62.9998" width="25" height="50" fill="#FFAA00"/>
<circle cx="1662.5" cy="162.5" r="12.5" transform="rotate(90 1662.5 162.5)" fill="#282828"/>
<circle cx="1612.5" cy="162.5" r="12.5" transform="rotate(90 1612.5 162.5)" fill="#282828"/>
<rect x="1662" y="150" width="25" height="50" transform="rotate(90 1662 150)" fill="#282828"/>
<circle cx="1762.5" cy="162.5" r="12.5" transform="rotate(90 1762.5 162.5)" fill="#282828"/>
<circle cx="1712.5" cy="162.5" r="12.5" transform="rotate(90 1712.5 162.5)" fill="#282828"/>
<rect x="1762" y="150" width="25" height="50" transform="rotate(90 1762 150)" fill="#282828"/>
<circle cx="1762.5" cy="12.4998" r="12.5" transform="rotate(90 1762.5 12.4998)" fill="#282828"/>
<circle cx="1712.5" cy="12.4998" r="12.5" transform="rotate(90 1712.5 12.4998)" fill="#282828"/>
<rect x="1762" y="-0.000244141" width="25" height="50" transform="rotate(90 1762 -0.000244141)" fill="#282828"/>
<circle cx="1662.5" cy="12.4998" r="12.5" transform="rotate(90 1662.5 12.4998)" fill="#282828"/>
<circle cx="1612.5" cy="12.4998" r="12.5" transform="rotate(90 1612.5 12.4998)" fill="#282828"/>
<rect x="1662" y="-0.000244141" width="25" height="50" transform="rotate(90 1662 -0.000244141)" fill="#282828"/>
<circle cx="962.5" cy="62.4998" r="12.5" transform="rotate(-180 962.5 62.4998)" fill="#282828"/>
<circle cx="962.5" cy="12.4998" r="12.5" transform="rotate(-180 962.5 12.4998)" fill="#FFAA00"/>
<circle cx="912.5" cy="62.4998" r="12.5" transform="rotate(-180 912.5 62.4998)" fill="#282828"/>
<circle cx="912.5" cy="12.4998" r="12.5" transform="rotate(-180 912.5 12.4998)" fill="#282828"/>
<circle cx="962.5" cy="162.5" r="12.5" transform="rotate(-180 962.5 162.5)" fill="#282828"/>
<circle cx="962.5" cy="112.5" r="12.5" transform="rotate(-180 962.5 112.5)" fill="#282828"/>
<circle cx="912.5" cy="162.5" r="12.5" transform="rotate(-180 912.5 162.5)" fill="#282828"/>
<circle cx="912.5" cy="112.5" r="12.5" transform="rotate(-180 912.5 112.5)" fill="#282828"/>
<circle cx="1162.5" cy="112.5" r="12.5" transform="rotate(-180 1162.5 112.5)" fill="#282828"/>
<circle cx="1162.5" cy="62.4998" r="12.5" transform="rotate(-180 1162.5 62.4998)" fill="#282828"/>
<circle cx="1112.5" cy="112.5" r="12.5" transform="rotate(-180 1112.5 112.5)" fill="#282828"/>
<circle cx="1112.5" cy="62.4998" r="12.5" transform="rotate(-180 1112.5 62.4998)" fill="#282828"/>
<rect x="1175" y="112" width="25" height="50" transform="rotate(-180 1175 112)" fill="#282828"/>
<circle cx="1012.5" cy="62.4998" r="12.5" fill="#282828"/>
<circle cx="1012.5" cy="112.5" r="12.5" fill="#282828"/>
<circle cx="1062.5" cy="62.4998" r="12.5" fill="#282828"/>
<circle cx="1062.5" cy="112.5" r="12.5" fill="#282828"/>
<rect x="1000" y="62.9998" width="25" height="50" fill="#282828"/>
<circle cx="1062.5" cy="162.5" r="12.5" transform="rotate(90 1062.5 162.5)" fill="#282828"/>
<circle cx="1012.5" cy="162.5" r="12.5" transform="rotate(90 1012.5 162.5)" fill="#282828"/>
<rect x="1062" y="150" width="25" height="50" transform="rotate(90 1062 150)" fill="#282828"/>
<circle cx="1162.5" cy="162.5" r="12.5" transform="rotate(90 1162.5 162.5)" fill="#282828"/>
<circle cx="1112.5" cy="162.5" r="12.5" transform="rotate(90 1112.5 162.5)" fill="#282828"/>
<rect x="1162" y="150" width="25" height="50" transform="rotate(90 1162 150)" fill="#282828"/>
<circle cx="1162.5" cy="12.4998" r="12.5" transform="rotate(90 1162.5 12.4998)" fill="#282828"/>
<circle cx="1112.5" cy="12.4998" r="12.5" transform="rotate(90 1112.5 12.4998)" fill="#282828"/>
<rect x="1162" y="-0.000244141" width="25" height="50" transform="rotate(90 1162 -0.000244141)" fill="#282828"/>
<circle cx="1062.5" cy="12.4998" r="12.5" transform="rotate(90 1062.5 12.4998)" fill="#282828"/>
<circle cx="1012.5" cy="12.4998" r="12.5" transform="rotate(90 1012.5 12.4998)" fill="#282828"/>
<rect x="1062" y="-0.000244141" width="25" height="50" transform="rotate(90 1062 -0.000244141)" fill="#282828"/>
<circle cx="362.5" cy="62.4996" r="12.5" transform="rotate(-180 362.5 62.4996)" fill="#282828"/>
<circle cx="362.5" cy="12.4996" r="12.5" transform="rotate(-180 362.5 12.4996)" fill="#282828"/>
<circle cx="312.5" cy="62.4996" r="12.5" transform="rotate(-180 312.5 62.4996)" fill="#282828"/>
<circle cx="312.5" cy="12.4996" r="12.5" transform="rotate(-180 312.5 12.4996)" fill="#282828"/>
<circle cx="362.5" cy="162.5" r="12.5" transform="rotate(-180 362.5 162.5)" fill="#282828"/>
<circle cx="362.5" cy="112.5" r="12.5" transform="rotate(-180 362.5 112.5)" fill="#282828"/>
<circle cx="312.5" cy="162.5" r="12.5" transform="rotate(-180 312.5 162.5)" fill="#282828"/>
<circle cx="312.5" cy="112.5" r="12.5" transform="rotate(-180 312.5 112.5)" fill="#282828"/>
<circle cx="562.5" cy="112.5" r="12.5" transform="rotate(-180 562.5 112.5)" fill="#282828"/>
<circle cx="562.5" cy="62.4996" r="12.5" transform="rotate(-180 562.5 62.4996)" fill="#282828"/>
<circle cx="512.5" cy="112.5" r="12.5" transform="rotate(-180 512.5 112.5)" fill="#282828"/>
<circle cx="512.5" cy="62.4996" r="12.5" transform="rotate(-180 512.5 62.4996)" fill="#FFAA00"/>
<rect x="575" y="112" width="25" height="50" transform="rotate(-180 575 112)" fill="#282828"/>
<circle cx="412.5" cy="62.4996" r="12.5" fill="#282828"/>
<circle cx="412.5" cy="112.5" r="12.5" fill="#282828"/>
<circle cx="462.5" cy="62.4996" r="12.5" fill="#282828"/>
<circle cx="462.5" cy="112.5" r="12.5" fill="#282828"/>
<rect x="400" y="62.9996" width="25" height="50" fill="#282828"/>
<circle cx="462.5" cy="162.5" r="12.5" transform="rotate(90 462.5 162.5)" fill="#282828"/>
<circle cx="412.5" cy="162.5" r="12.5" transform="rotate(90 412.5 162.5)" fill="#282828"/>
<rect x="462" y="150" width="25" height="50" transform="rotate(90 462 150)" fill="#282828"/>
<circle cx="562.5" cy="162.5" r="12.5" transform="rotate(90 562.5 162.5)" fill="#282828"/>
<circle cx="512.5" cy="162.5" r="12.5" transform="rotate(90 512.5 162.5)" fill="#282828"/>
<rect x="562" y="150" width="25" height="50" transform="rotate(90 562 150)" fill="#282828"/>
<circle cx="562.5" cy="12.4996" r="12.5" transform="rotate(90 562.5 12.4996)" fill="#282828"/>
<circle cx="512.5" cy="12.4996" r="12.5" transform="rotate(90 512.5 12.4996)" fill="#282828"/>
<rect x="562" y="-0.000366211" width="25" height="50" transform="rotate(90 562 -0.000366211)" fill="#282828"/>
<circle cx="462.5" cy="12.4996" r="12.5" transform="rotate(90 462.5 12.4996)" fill="#282828"/>
<circle cx="412.5" cy="12.4996" r="12.5" transform="rotate(90 412.5 12.4996)" fill="#282828"/>
<rect x="462" y="-0.000366211" width="25" height="50" transform="rotate(90 462 -0.000366211)" fill="#282828"/>
<circle cx="62.5" cy="62.4996" r="12.5" transform="rotate(-180 62.5 62.4996)" fill="#282828"/>
<circle cx="62.5" cy="12.4996" r="12.5" transform="rotate(-180 62.5 12.4996)" fill="#282828"/>
<circle cx="12.5" cy="62.4996" r="12.5" transform="rotate(-180 12.5 62.4996)" fill="#282828"/>
<circle cx="12.5" cy="12.4996" r="12.5" transform="rotate(-180 12.5 12.4996)" fill="#282828"/>
<circle cx="62.5" cy="162.5" r="12.5" transform="rotate(-180 62.5 162.5)" fill="#282828"/>
<circle cx="62.5" cy="112.5" r="12.5" transform="rotate(-180 62.5 112.5)" fill="#282828"/>
<circle cx="12.5" cy="162.5" r="12.5" transform="rotate(-180 12.5 162.5)" fill="#282828"/>
<circle cx="12.5" cy="112.5" r="12.5" transform="rotate(-180 12.5 112.5)" fill="#282828"/>
<circle cx="262.5" cy="112.5" r="12.5" transform="rotate(-180 262.5 112.5)" fill="#282828"/>
<circle cx="262.5" cy="62.4996" r="12.5" transform="rotate(-180 262.5 62.4996)" fill="#282828"/>
<circle cx="212.5" cy="112.5" r="12.5" transform="rotate(-180 212.5 112.5)" fill="#282828"/>
<circle cx="212.5" cy="62.4996" r="12.5" transform="rotate(-180 212.5 62.4996)" fill="#282828"/>
<rect x="275" y="112" width="25" height="50" transform="rotate(-180 275 112)" fill="#282828"/>
<circle cx="112.5" cy="62.4996" r="12.5" fill="#FFAA00"/>
<circle cx="112.5" cy="112.5" r="12.5" fill="#FFAA00"/>
<circle cx="162.5" cy="62.4996" r="12.5" fill="#282828"/>
<circle cx="162.5" cy="112.5" r="12.5" fill="#FFAA00"/>
<rect x="100" y="62.9996" width="25" height="50" fill="#FFAA00"/>
<circle cx="162.5" cy="162.5" r="12.5" transform="rotate(90 162.5 162.5)" fill="#282828"/>
<circle cx="112.5" cy="162.5" r="12.5" transform="rotate(90 112.5 162.5)" fill="#282828"/>
<rect x="162" y="150" width="25" height="50" transform="rotate(90 162 150)" fill="#282828"/>
<circle cx="262.5" cy="162.5" r="12.5" transform="rotate(90 262.5 162.5)" fill="#282828"/>
<circle cx="212.5" cy="162.5" r="12.5" transform="rotate(90 212.5 162.5)" fill="#282828"/>
<rect x="262" y="150" width="25" height="50" transform="rotate(90 262 150)" fill="#282828"/>
<circle cx="262.5" cy="12.4996" r="12.5" transform="rotate(90 262.5 12.4996)" fill="#282828"/>
<circle cx="212.5" cy="12.4996" r="12.5" transform="rotate(90 212.5 12.4996)" fill="#282828"/>
<rect x="262" y="-0.000366211" width="25" height="50" transform="rotate(90 262 -0.000366211)" fill="#282828"/>
<circle cx="162.5" cy="12.4996" r="12.5" transform="rotate(90 162.5 12.4996)" fill="#282828"/>
<circle cx="112.5" cy="12.4996" r="12.5" transform="rotate(90 112.5 12.4996)" fill="#282828"/>
<rect x="162" y="-0.000366211" width="25" height="50" transform="rotate(90 162 -0.000366211)" fill="#282828"/>
<circle cx="662.5" cy="62.4996" r="12.5" transform="rotate(-180 662.5 62.4996)" fill="#282828"/>
<circle cx="662.5" cy="12.4996" r="12.5" transform="rotate(-180 662.5 12.4996)" fill="#282828"/>
<circle cx="612.5" cy="62.4996" r="12.5" transform="rotate(-180 612.5 62.4996)" fill="#282828"/>
<circle cx="612.5" cy="12.4996" r="12.5" transform="rotate(-180 612.5 12.4996)" fill="#282828"/>
<circle cx="662.5" cy="162.5" r="12.5" transform="rotate(-180 662.5 162.5)" fill="#282828"/>
<circle cx="662.5" cy="112.5" r="12.5" transform="rotate(-180 662.5 112.5)" fill="#282828"/>
<circle cx="612.5" cy="162.5" r="12.5" transform="rotate(-180 612.5 162.5)" fill="#282828"/>
<circle cx="612.5" cy="112.5" r="12.5" transform="rotate(-180 612.5 112.5)" fill="#282828"/>
<circle cx="862.5" cy="112.5" r="12.5" transform="rotate(-180 862.5 112.5)" fill="#282828"/>
<circle cx="862.5" cy="62.4996" r="12.5" transform="rotate(-180 862.5 62.4996)" fill="#282828"/>
<circle cx="812.5" cy="112.5" r="12.5" transform="rotate(-180 812.5 112.5)" fill="#282828"/>
<circle cx="812.5" cy="62.4996" r="12.5" transform="rotate(-180 812.5 62.4996)" fill="#282828"/>
<rect x="875" y="112" width="25" height="50" transform="rotate(-180 875 112)" fill="#282828"/>
<circle cx="712.5" cy="62.4996" r="12.5" fill="#282828"/>
<circle cx="712.5" cy="112.5" r="12.5" fill="#282828"/>
<circle cx="762.5" cy="62.4996" r="12.5" fill="#FFAA00"/>
<circle cx="762.5" cy="112.5" r="12.5" fill="#282828"/>
<rect x="700" y="62.9996" width="25" height="50" fill="#282828"/>
<circle cx="762.5" cy="162.5" r="12.5" transform="rotate(90 762.5 162.5)" fill="#FFAA00"/>
<circle cx="712.5" cy="162.5" r="12.5" transform="rotate(90 712.5 162.5)" fill="#FFAA00"/>
<rect x="762" y="150" width="25" height="50" transform="rotate(90 762 150)" fill="#FFAA00"/>
<circle cx="862.5" cy="162.5" r="12.5" transform="rotate(90 862.5 162.5)" fill="#282828"/>
<circle cx="812.5" cy="162.5" r="12.5" transform="rotate(90 812.5 162.5)" fill="#282828"/>
<rect x="862" y="150" width="25" height="50" transform="rotate(90 862 150)" fill="#282828"/>
<circle cx="862.5" cy="12.4996" r="12.5" transform="rotate(90 862.5 12.4996)" fill="#282828"/>
<circle cx="812.5" cy="12.4996" r="12.5" transform="rotate(90 812.5 12.4996)" fill="#282828"/>
<rect x="862" y="-0.000366211" width="25" height="50" transform="rotate(90 862 -0.000366211)" fill="#282828"/>
<circle cx="762.5" cy="12.4996" r="12.5" transform="rotate(90 762.5 12.4996)" fill="#282828"/>
<circle cx="712.5" cy="12.4996" r="12.5" transform="rotate(90 712.5 12.4996)" fill="#282828"/>
<rect x="762" y="-0.000366211" width="25" height="50" transform="rotate(90 762 -0.000366211)" fill="#282828"/>
<circle cx="1262.5" cy="62.4998" r="12.5" transform="rotate(-180 1262.5 62.4998)" fill="#282828"/>
<circle cx="1262.5" cy="12.4998" r="12.5" transform="rotate(-180 1262.5 12.4998)" fill="#282828"/>
<circle cx="1212.5" cy="62.4998" r="12.5" transform="rotate(-180 1212.5 62.4998)" fill="#282828"/>
<circle cx="1212.5" cy="12.4998" r="12.5" transform="rotate(-180 1212.5 12.4998)" fill="#282828"/>
<circle cx="1262.5" cy="162.5" r="12.5" transform="rotate(-180 1262.5 162.5)" fill="#282828"/>
<circle cx="1262.5" cy="112.5" r="12.5" transform="rotate(-180 1262.5 112.5)" fill="#FFAA00"/>
<circle cx="1212.5" cy="162.5" r="12.5" transform="rotate(-180 1212.5 162.5)" fill="#282828"/>
<circle cx="1212.5" cy="112.5" r="12.5" transform="rotate(-180 1212.5 112.5)" fill="#282828"/>
<circle cx="1462.5" cy="112.5" r="12.5" transform="rotate(-180 1462.5 112.5)" fill="#282828"/>
<circle cx="1462.5" cy="62.4998" r="12.5" transform="rotate(-180 1462.5 62.4998)" fill="#282828"/>
<circle cx="1412.5" cy="112.5" r="12.5" transform="rotate(-180 1412.5 112.5)" fill="#282828"/>
<circle cx="1412.5" cy="62.4998" r="12.5" transform="rotate(-180 1412.5 62.4998)" fill="#282828"/>
<rect x="1475" y="112" width="25" height="50" transform="rotate(-180 1475 112)" fill="#282828"/>
<circle cx="1312.5" cy="62.4998" r="12.5" fill="#282828"/>
<circle cx="1312.5" cy="112.5" r="12.5" fill="#282828"/>
<circle cx="1362.5" cy="62.4998" r="12.5" fill="#282828"/>
<circle cx="1362.5" cy="112.5" r="12.5" fill="#282828"/>
<rect x="1300" y="62.9998" width="25" height="50" fill="#282828"/>
<circle cx="1362.5" cy="162.5" r="12.5" transform="rotate(90 1362.5 162.5)" fill="#282828"/>
<circle cx="1312.5" cy="162.5" r="12.5" transform="rotate(90 1312.5 162.5)" fill="#282828"/>
<rect x="1362" y="150" width="25" height="50" transform="rotate(90 1362 150)" fill="#282828"/>
<circle cx="1462.5" cy="162.5" r="12.5" transform="rotate(90 1462.5 162.5)" fill="#282828"/>
<circle cx="1412.5" cy="162.5" r="12.5" transform="rotate(90 1412.5 162.5)" fill="#282828"/>
<rect x="1462" y="150" width="25" height="50" transform="rotate(90 1462 150)" fill="#282828"/>
<circle cx="1462.5" cy="12.4998" r="12.5" transform="rotate(90 1462.5 12.4998)" fill="#282828"/>
<circle cx="1412.5" cy="12.4998" r="12.5" transform="rotate(90 1412.5 12.4998)" fill="#282828"/>
<rect x="1462" y="-0.000244141" width="25" height="50" transform="rotate(90 1462 -0.000244141)" fill="#282828"/>
<circle cx="1362.5" cy="12.4998" r="12.5" transform="rotate(90 1362.5 12.4998)" fill="#282828"/>
<circle cx="1312.5" cy="12.4998" r="12.5" transform="rotate(90 1312.5 12.4998)" fill="#282828"/>
<rect x="1362" y="-0.000244141" width="25" height="50" transform="rotate(90 1362 -0.000244141)" fill="#282828"/>
</g>
<defs>
<clipPath id="clip0_144_2678">
<rect width="3600" height="175" fill="white" transform="translate(3600 175) rotate(-180)"/>
</clipPath>
</defs>
</svg>
