<svg width="3600" height="175" viewBox="0 0 3600 175" fill="none" xmlns="http://www.w3.org/2000/svg">
<g clip-path="url(#clip0_144_2678)">
<circle cx="237.5" cy="112.5" r="12.5" fill="#282828"/>
<circle cx="237.5" cy="162.5" r="12.5" fill="#282828"/>
<circle cx="287.5" cy="112.5" r="12.5" fill="#282828"/>
<circle cx="287.5" cy="162.5" r="12.5" fill="#282828"/>
<circle cx="237.5" cy="12.5004" r="12.5" fill="#282828"/>
<circle cx="237.5" cy="62.5004" r="12.5" fill="#282828"/>
<circle cx="287.5" cy="12.5004" r="12.5" fill="#282828"/>
<circle cx="287.5" cy="62.5004" r="12.5" fill="#282828"/>
<circle cx="37.5" cy="62.5004" r="12.5" fill="#282828"/>
<circle cx="37.5" cy="112.5" r="12.5" fill="#282828"/>
<circle cx="87.5" cy="62.5004" r="12.5" fill="#282828"/>
<circle cx="87.5" cy="112.5" r="12.5" fill="#282828"/>
<rect x="25" y="63.0004" width="25" height="50" fill="#282828"/>
<circle cx="187.5" cy="112.5" r="12.5" transform="rotate(180 187.5 112.5)" fill="#282828"/>
<circle cx="187.5" cy="62.5004" r="12.5" transform="rotate(180 187.5 62.5004)" fill="#282828"/>
<circle cx="137.5" cy="112.5" r="12.5" transform="rotate(180 137.5 112.5)" fill="#282828"/>
<circle cx="137.5" cy="62.5004" r="12.5" transform="rotate(180 137.5 62.5004)" fill="#FFAA00"/>
<rect x="200" y="112" width="25" height="50" transform="rotate(180 200 112)" fill="#282828"/>
<circle cx="137.5" cy="12.5004" r="12.5" transform="rotate(-90 137.5 12.5004)" fill="#282828"/>
<circle cx="187.5" cy="12.5004" r="12.5" transform="rotate(-90 187.5 12.5004)" fill="#282828"/>
<rect x="138" y="25.0004" width="25" height="50" transform="rotate(-90 138 25.0004)" fill="#282828"/>
<circle cx="37.5" cy="12.5004" r="12.5" transform="rotate(-90 37.5 12.5004)" fill="#282828"/>
<circle cx="87.5" cy="12.5004" r="12.5" transform="rotate(-90 87.5 12.5004)" fill="#282828"/>
<rect x="38" y="25.0004" width="25" height="50" transform="rotate(-90 38 25.0004)" fill="#282828"/>
<circle cx="37.5" cy="162.5" r="12.5" transform="rotate(-90 37.5 162.5)" fill="#282828"/>
<circle cx="87.5" cy="162.5" r="12.5" transform="rotate(-90 87.5 162.5)" fill="#282828"/>
<rect x="38" y="175" width="25" height="50" transform="rotate(-90 38 175)" fill="#282828"/>
<circle cx="137.5" cy="162.5" r="12.5" transform="rotate(-90 137.5 162.5)" fill="#282828"/>
<circle cx="187.5" cy="162.5" r="12.5" transform="rotate(-90 187.5 162.5)" fill="#282828"/>
<rect x="138" y="175" width="25" height="50" transform="rotate(-90 138 175)" fill="#282828"/>
<circle cx="837.5" cy="112.5" r="12.5" fill="#282828"/>
<circle cx="837.5" cy="162.5" r="12.5" fill="#282828"/>
<circle cx="887.5" cy="112.5" r="12.5" fill="#282828"/>
<circle cx="887.5" cy="162.5" r="12.5" fill="#282828"/>
<circle cx="837.5" cy="12.5002" r="12.5" fill="#282828"/>
<circle cx="837.5" cy="62.5002" r="12.5" fill="#282828"/>
<circle cx="887.5" cy="12.5002" r="12.5" fill="#282828"/>
<circle cx="887.5" cy="62.5002" r="12.5" fill="#282828"/>
<circle cx="637.5" cy="62.5002" r="12.5" fill="#282828"/>
<circle cx="637.5" cy="112.5" r="12.5" fill="#282828"/>
<circle cx="687.5" cy="62.5002" r="12.5" fill="#282828"/>
<circle cx="687.5" cy="112.5" r="12.5" fill="#282828"/>
<rect x="625" y="63.0002" width="25" height="50" fill="#282828"/>
<circle cx="787.5" cy="112.5" r="12.5" transform="rotate(180 787.5 112.5)" fill="#282828"/>
<circle cx="787.5" cy="62.5002" r="12.5" transform="rotate(180 787.5 62.5002)" fill="#282828"/>
<circle cx="737.5" cy="112.5" r="12.5" transform="rotate(180 737.5 112.5)" fill="#282828"/>
<circle cx="737.5" cy="62.5002" r="12.5" transform="rotate(180 737.5 62.5002)" fill="#282828"/>
<rect x="800" y="112" width="25" height="50" transform="rotate(180 800 112)" fill="#282828"/>
<circle cx="737.5" cy="12.5002" r="12.5" transform="rotate(-90 737.5 12.5002)" fill="#282828"/>
<circle cx="787.5" cy="12.5002" r="12.5" transform="rotate(-90 787.5 12.5002)" fill="#282828"/>
<rect x="738" y="25.0002" width="25" height="50" transform="rotate(-90 738 25.0002)" fill="#282828"/>
<circle cx="637.5" cy="12.5002" r="12.5" transform="rotate(-90 637.5 12.5002)" fill="#282828"/>
<circle cx="687.5" cy="12.5002" r="12.5" transform="rotate(-90 687.5 12.5002)" fill="#282828"/>
<rect x="638" y="25.0002" width="25" height="50" transform="rotate(-90 638 25.0002)" fill="#282828"/>
<circle cx="637.5" cy="162.5" r="12.5" transform="rotate(-90 637.5 162.5)" fill="#282828"/>
<circle cx="687.5" cy="162.5" r="12.5" transform="rotate(-90 687.5 162.5)" fill="#282828"/>
<rect x="638" y="175" width="25" height="50" transform="rotate(-90 638 175)" fill="#282828"/>
<circle cx="737.5" cy="162.5" r="12.5" transform="rotate(-90 737.5 162.5)" fill="#282828"/>
<circle cx="787.5" cy="162.5" r="12.5" transform="rotate(-90 787.5 162.5)" fill="#282828"/>
<rect x="738" y="175" width="25" height="50" transform="rotate(-90 738 175)" fill="#282828"/>
<circle cx="1437.5" cy="112.5" r="12.5" fill="#282828"/>
<circle cx="1437.5" cy="162.5" r="12.5" fill="#282828"/>
<circle cx="1487.5" cy="112.5" r="12.5" fill="#282828"/>
<circle cx="1487.5" cy="162.5" r="12.5" fill="#282828"/>
<circle cx="1437.5" cy="12.5001" r="12.5" fill="#282828"/>
<circle cx="1437.5" cy="62.5001" r="12.5" fill="#282828"/>
<circle cx="1487.5" cy="12.5001" r="12.5" fill="#282828"/>
<circle cx="1487.5" cy="62.5001" r="12.5" fill="#282828"/>
<circle cx="1237.5" cy="62.5001" r="12.5" fill="#282828"/>
<circle cx="1237.5" cy="112.5" r="12.5" fill="#282828"/>
<circle cx="1287.5" cy="62.5001" r="12.5" fill="#282828"/>
<circle cx="1287.5" cy="112.5" r="12.5" fill="#282828"/>
<rect x="1225" y="63.0001" width="25" height="50" fill="#282828"/>
<circle cx="1387.5" cy="112.5" r="12.5" transform="rotate(180 1387.5 112.5)" fill="#282828"/>
<circle cx="1387.5" cy="62.5001" r="12.5" transform="rotate(180 1387.5 62.5001)" fill="#282828"/>
<circle cx="1337.5" cy="112.5" r="12.5" transform="rotate(180 1337.5 112.5)" fill="#FFAA00"/>
<circle cx="1337.5" cy="62.5001" r="12.5" transform="rotate(180 1337.5 62.5001)" fill="#282828"/>
<rect x="1400" y="112" width="25" height="50" transform="rotate(180 1400 112)" fill="#282828"/>
<circle cx="1337.5" cy="12.5001" r="12.5" transform="rotate(-90 1337.5 12.5001)" fill="#282828"/>
<circle cx="1387.5" cy="12.5001" r="12.5" transform="rotate(-90 1387.5 12.5001)" fill="#282828"/>
<rect x="1338" y="25.0001" width="25" height="50" transform="rotate(-90 1338 25.0001)" fill="#282828"/>
<circle cx="1237.5" cy="12.5001" r="12.5" transform="rotate(-90 1237.5 12.5001)" fill="#282828"/>
<circle cx="1287.5" cy="12.5001" r="12.5" transform="rotate(-90 1287.5 12.5001)" fill="#282828"/>
<rect x="1238" y="25.0001" width="25" height="50" transform="rotate(-90 1238 25.0001)" fill="#282828"/>
<circle cx="1237.5" cy="162.5" r="12.5" transform="rotate(-90 1237.5 162.5)" fill="#282828"/>
<circle cx="1287.5" cy="162.5" r="12.5" transform="rotate(-90 1287.5 162.5)" fill="#282828"/>
<rect x="1238" y="175" width="25" height="50" transform="rotate(-90 1238 175)" fill="#282828"/>
<circle cx="1337.5" cy="162.5" r="12.5" transform="rotate(-90 1337.5 162.5)" fill="#282828"/>
<circle cx="1387.5" cy="162.5" r="12.5" transform="rotate(-90 1387.5 162.5)" fill="#282828"/>
<rect x="1338" y="175" width="25" height="50" transform="rotate(-90 1338 175)" fill="#282828"/>
<circle cx="1737.5" cy="112.5" r="12.5" fill="#282828"/>
<circle cx="1737.5" cy="162.5" r="12.5" fill="#282828"/>
<circle cx="1787.5" cy="112.5" r="12.5" fill="#282828"/>
<circle cx="1787.5" cy="162.5" r="12.5" fill="#282828"/>
<circle cx="1737.5" cy="12.5001" r="12.5" fill="#282828"/>
<circle cx="1737.5" cy="62.5001" r="12.5" fill="#282828"/>
<circle cx="1787.5" cy="12.5001" r="12.5" fill="#282828"/>
<circle cx="1787.5" cy="62.5001" r="12.5" fill="#282828"/>
<circle cx="1537.5" cy="62.5001" r="12.5" fill="#282828"/>
<circle cx="1537.5" cy="112.5" r="12.5" fill="#282828"/>
<circle cx="1587.5" cy="62.5001" r="12.5" fill="#282828"/>
<circle cx="1587.5" cy="112.5" r="12.5" fill="#282828"/>
<rect x="1525" y="63.0001" width="25" height="50" fill="#282828"/>
<circle cx="1687.5" cy="112.5" r="12.5" transform="rotate(180 1687.5 112.5)" fill="#282828"/>
<circle cx="1687.5" cy="62.5001" r="12.5" transform="rotate(180 1687.5 62.5001)" fill="#282828"/>
<circle cx="1637.5" cy="112.5" r="12.5" transform="rotate(180 1637.5 112.5)" fill="#282828"/>
<circle cx="1637.5" cy="62.5001" r="12.5" transform="rotate(180 1637.5 62.5001)" fill="#282828"/>
<rect x="1700" y="112" width="25" height="50" transform="rotate(180 1700 112)" fill="#282828"/>
<circle cx="1637.5" cy="12.5001" r="12.5" transform="rotate(-90 1637.5 12.5001)" fill="#282828"/>
<circle cx="1687.5" cy="12.5001" r="12.5" transform="rotate(-90 1687.5 12.5001)" fill="#282828"/>
<rect x="1638" y="25.0001" width="25" height="50" transform="rotate(-90 1638 25.0001)" fill="#282828"/>
<circle cx="1537.5" cy="12.5001" r="12.5" transform="rotate(-90 1537.5 12.5001)" fill="#282828"/>
<circle cx="1587.5" cy="12.5001" r="12.5" transform="rotate(-90 1587.5 12.5001)" fill="#282828"/>
<rect x="1538" y="25.0001" width="25" height="50" transform="rotate(-90 1538 25.0001)" fill="#282828"/>
<circle cx="1537.5" cy="162.5" r="12.5" transform="rotate(-90 1537.5 162.5)" fill="#282828"/>
<circle cx="1587.5" cy="162.5" r="12.5" transform="rotate(-90 1587.5 162.5)" fill="#282828"/>
<rect x="1538" y="175" width="25" height="50" transform="rotate(-90 1538 175)" fill="#282828"/>
<circle cx="1637.5" cy="162.5" r="12.5" transform="rotate(-90 1637.5 162.5)" fill="#FFAA00"/>
<circle cx="1687.5" cy="162.5" r="12.5" transform="rotate(-90 1687.5 162.5)" fill="#FFAA00"/>
<rect x="1638" y="175" width="25" height="50" transform="rotate(-90 1638 175)" fill="#FFAA00"/>
<circle cx="1137.5" cy="112.5" r="12.5" fill="#282828"/>
<circle cx="1137.5" cy="162.5" r="12.5" fill="#282828"/>
<circle cx="1187.5" cy="112.5" r="12.5" fill="#282828"/>
<circle cx="1187.5" cy="162.5" r="12.5" fill="#282828"/>
<circle cx="1137.5" cy="12.5002" r="12.5" fill="#282828"/>
<circle cx="1137.5" cy="62.5002" r="12.5" fill="#282828"/>
<circle cx="1187.5" cy="12.5002" r="12.5" fill="#282828"/>
<circle cx="1187.5" cy="62.5002" r="12.5" fill="#282828"/>
<circle cx="937.5" cy="62.5002" r="12.5" fill="#FFAA00"/>
<circle cx="937.5" cy="112.5" r="12.5" fill="#FFAA00"/>
<circle cx="987.5" cy="62.5002" r="12.5" fill="#282828"/>
<circle cx="987.5" cy="112.5" r="12.5" fill="#282828"/>
<rect x="925" y="63.0002" width="25" height="50" fill="#FFAA00"/>
<circle cx="1087.5" cy="112.5" r="12.5" transform="rotate(180 1087.5 112.5)" fill="#282828"/>
<circle cx="1087.5" cy="62.5002" r="12.5" transform="rotate(180 1087.5 62.5002)" fill="#282828"/>
<circle cx="1037.5" cy="112.5" r="12.5" transform="rotate(180 1037.5 112.5)" fill="#282828"/>
<circle cx="1037.5" cy="62.5002" r="12.5" transform="rotate(180 1037.5 62.5002)" fill="#282828"/>
<rect x="1100" y="112" width="25" height="50" transform="rotate(180 1100 112)" fill="#282828"/>
<circle cx="1037.5" cy="12.5002" r="12.5" transform="rotate(-90 1037.5 12.5002)" fill="#FFAA00"/>
<circle cx="1087.5" cy="12.5002" r="12.5" transform="rotate(-90 1087.5 12.5002)" fill="#FFAA00"/>
<rect x="1038" y="25.0002" width="25" height="50" transform="rotate(-90 1038 25.0002)" fill="#FFAA00"/>
<circle cx="937.5" cy="12.5002" r="12.5" transform="rotate(-90 937.5 12.5002)" fill="#282828"/>
<circle cx="987.5" cy="12.5002" r="12.5" transform="rotate(-90 987.5 12.5002)" fill="#282828"/>
<rect x="938" y="25.0002" width="25" height="50" transform="rotate(-90 938 25.0002)" fill="#282828"/>
<circle cx="937.5" cy="162.5" r="12.5" transform="rotate(-90 937.5 162.5)" fill="#282828"/>
<circle cx="987.5" cy="162.5" r="12.5" transform="rotate(-90 987.5 162.5)" fill="#282828"/>
<rect x="938" y="175" width="25" height="50" transform="rotate(-90 938 175)" fill="#282828"/>
<circle cx="1037.5" cy="162.5" r="12.5" transform="rotate(-90 1037.5 162.5)" fill="#282828"/>
<circle cx="1087.5" cy="162.5" r="12.5" transform="rotate(-90 1087.5 162.5)" fill="#282828"/>
<rect x="1038" y="175" width="25" height="50" transform="rotate(-90 1038 175)" fill="#282828"/>
<circle cx="537.5" cy="112.5" r="12.5" fill="#282828"/>
<circle cx="537.5" cy="162.5" r="12.5" fill="#282828"/>
<circle cx="587.5" cy="112.5" r="12.5" fill="#282828"/>
<circle cx="587.5" cy="162.5" r="12.5" fill="#282828"/>
<circle cx="537.5" cy="12.5004" r="12.5" fill="#282828"/>
<circle cx="537.5" cy="62.5004" r="12.5" fill="#282828"/>
<circle cx="587.5" cy="12.5004" r="12.5" fill="#282828"/>
<circle cx="587.5" cy="62.5004" r="12.5" fill="#282828"/>
<circle cx="337.5" cy="62.5004" r="12.5" fill="#282828"/>
<circle cx="337.5" cy="112.5" r="12.5" fill="#282828"/>
<circle cx="387.5" cy="62.5004" r="12.5" fill="#282828"/>
<circle cx="387.5" cy="112.5" r="12.5" fill="#282828"/>
<rect x="325" y="63.0004" width="25" height="50" fill="#282828"/>
<circle cx="487.5" cy="112.5" r="12.5" transform="rotate(180 487.5 112.5)" fill="#282828"/>
<circle cx="487.5" cy="62.5004" r="12.5" transform="rotate(180 487.5 62.5004)" fill="#282828"/>
<circle cx="437.5" cy="112.5" r="12.5" transform="rotate(180 437.5 112.5)" fill="#282828"/>
<circle cx="437.5" cy="62.5004" r="12.5" transform="rotate(180 437.5 62.5004)" fill="#282828"/>
<rect x="500" y="112" width="25" height="50" transform="rotate(180 500 112)" fill="#282828"/>
<circle cx="437.5" cy="12.5004" r="12.5" transform="rotate(-90 437.5 12.5004)" fill="#282828"/>
<circle cx="487.5" cy="12.5004" r="12.5" transform="rotate(-90 487.5 12.5004)" fill="#282828"/>
<rect x="438" y="25.0004" width="25" height="50" transform="rotate(-90 438 25.0004)" fill="#282828"/>
<circle cx="337.5" cy="12.5004" r="12.5" transform="rotate(-90 337.5 12.5004)" fill="#282828"/>
<circle cx="387.5" cy="12.5004" r="12.5" transform="rotate(-90 387.5 12.5004)" fill="#282828"/>
<rect x="338" y="25.0004" width="25" height="50" transform="rotate(-90 338 25.0004)" fill="#282828"/>
<circle cx="337.5" cy="162.5" r="12.5" transform="rotate(-90 337.5 162.5)" fill="#282828"/>
<circle cx="387.5" cy="162.5" r="12.5" transform="rotate(-90 387.5 162.5)" fill="#282828"/>
<rect x="338" y="175" width="25" height="50" transform="rotate(-90 338 175)" fill="#282828"/>
<circle cx="437.5" cy="162.5" r="12.5" transform="rotate(-90 437.5 162.5)" fill="#FFAA00"/>
<circle cx="487.5" cy="162.5" r="12.5" transform="rotate(-90 487.5 162.5)" fill="#FFAA00"/>
<rect x="438" y="175" width="25" height="50" transform="rotate(-90 438 175)" fill="#FFAA00"/>
<circle cx="2037.5" cy="112.5" r="12.5" fill="#282828"/>
<circle cx="2037.5" cy="162.5" r="12.5" fill="#282828"/>
<circle cx="2087.5" cy="112.5" r="12.5" fill="#282828"/>
<circle cx="2087.5" cy="162.5" r="12.5" fill="#282828"/>
<circle cx="2037.5" cy="12.5" r="12.5" fill="#282828"/>
<circle cx="2037.5" cy="62.5" r="12.5" fill="#282828"/>
<circle cx="2087.5" cy="12.5" r="12.5" fill="#282828"/>
<circle cx="2087.5" cy="62.5" r="12.5" fill="#282828"/>
<circle cx="1837.5" cy="62.5" r="12.5" fill="#282828"/>
<circle cx="1837.5" cy="112.5" r="12.5" fill="#282828"/>
<circle cx="1887.5" cy="62.5" r="12.5" fill="#282828"/>
<circle cx="1887.5" cy="112.5" r="12.5" fill="#282828"/>
<rect x="1825" y="63" width="25" height="50" fill="#282828"/>
<circle cx="1987.5" cy="112.5" r="12.5" transform="rotate(180 1987.5 112.5)" fill="#FFAA00"/>
<circle cx="1987.5" cy="62.5" r="12.5" transform="rotate(180 1987.5 62.5)" fill="#FFAA00"/>
<circle cx="1937.5" cy="112.5" r="12.5" transform="rotate(180 1937.5 112.5)" fill="#282828"/>
<circle cx="1937.5" cy="62.5" r="12.5" transform="rotate(180 1937.5 62.5)" fill="#282828"/>
<rect x="2000" y="112" width="25" height="50" transform="rotate(180 2000 112)" fill="#FFAA00"/>
<circle cx="1937.5" cy="12.5" r="12.5" transform="rotate(-90 1937.5 12.5)" fill="#282828"/>
<circle cx="1987.5" cy="12.5" r="12.5" transform="rotate(-90 1987.5 12.5)" fill="#282828"/>
<rect x="1938" y="25" width="25" height="50" transform="rotate(-90 1938 25)" fill="#282828"/>
<circle cx="1837.5" cy="12.5" r="12.5" transform="rotate(-90 1837.5 12.5)" fill="#282828"/>
<circle cx="1887.5" cy="12.5" r="12.5" transform="rotate(-90 1887.5 12.5)" fill="#282828"/>
<rect x="1838" y="25" width="25" height="50" transform="rotate(-90 1838 25)" fill="#282828"/>
<circle cx="1837.5" cy="162.5" r="12.5" transform="rotate(-90 1837.5 162.5)" fill="#282828"/>
<circle cx="1887.5" cy="162.5" r="12.5" transform="rotate(-90 1887.5 162.5)" fill="#282828"/>
<rect x="1838" y="175" width="25" height="50" transform="rotate(-90 1838 175)" fill="#282828"/>
<circle cx="1937.5" cy="162.5" r="12.5" transform="rotate(-90 1937.5 162.5)" fill="#282828"/>
<circle cx="1987.5" cy="162.5" r="12.5" transform="rotate(-90 1987.5 162.5)" fill="#282828"/>
<rect x="1938" y="175" width="25" height="50" transform="rotate(-90 1938 175)" fill="#282828"/>
<circle cx="2637.5" cy="112.5" r="12.5" fill="#282828"/>
<circle cx="2637.5" cy="162.5" r="12.5" fill="#FFAA00"/>
<circle cx="2687.5" cy="112.5" r="12.5" fill="#282828"/>
<circle cx="2687.5" cy="162.5" r="12.5" fill="#282828"/>
<circle cx="2637.5" cy="12.4999" r="12.5" fill="#282828"/>
<circle cx="2637.5" cy="62.4999" r="12.5" fill="#282828"/>
<circle cx="2687.5" cy="12.4999" r="12.5" fill="#282828"/>
<circle cx="2687.5" cy="62.4999" r="12.5" fill="#282828"/>
<circle cx="2437.5" cy="62.4999" r="12.5" fill="#282828"/>
<circle cx="2437.5" cy="112.5" r="12.5" fill="#282828"/>
<circle cx="2487.5" cy="62.4999" r="12.5" fill="#282828"/>
<circle cx="2487.5" cy="112.5" r="12.5" fill="#282828"/>
<rect x="2425" y="62.9999" width="25" height="50" fill="#282828"/>
<circle cx="2587.5" cy="112.5" r="12.5" transform="rotate(180 2587.5 112.5)" fill="#282828"/>
<circle cx="2587.5" cy="62.4999" r="12.5" transform="rotate(180 2587.5 62.4999)" fill="#282828"/>
<circle cx="2537.5" cy="112.5" r="12.5" transform="rotate(180 2537.5 112.5)" fill="#282828"/>
<circle cx="2537.5" cy="62.4999" r="12.5" transform="rotate(180 2537.5 62.4999)" fill="#282828"/>
<rect x="2600" y="112" width="25" height="50" transform="rotate(180 2600 112)" fill="#282828"/>
<circle cx="2537.5" cy="12.4999" r="12.5" transform="rotate(-90 2537.5 12.4999)" fill="#282828"/>
<circle cx="2587.5" cy="12.4999" r="12.5" transform="rotate(-90 2587.5 12.4999)" fill="#282828"/>
<rect x="2538" y="24.9999" width="25" height="50" transform="rotate(-90 2538 24.9999)" fill="#282828"/>
<circle cx="2437.5" cy="12.4999" r="12.5" transform="rotate(-90 2437.5 12.4999)" fill="#282828"/>
<circle cx="2487.5" cy="12.4999" r="12.5" transform="rotate(-90 2487.5 12.4999)" fill="#282828"/>
<rect x="2438" y="24.9999" width="25" height="50" transform="rotate(-90 2438 24.9999)" fill="#282828"/>
<circle cx="2437.5" cy="162.5" r="12.5" transform="rotate(-90 2437.5 162.5)" fill="#282828"/>
<circle cx="2487.5" cy="162.5" r="12.5" transform="rotate(-90 2487.5 162.5)" fill="#282828"/>
<rect x="2438" y="175" width="25" height="50" transform="rotate(-90 2438 175)" fill="#282828"/>
<circle cx="2537.5" cy="162.5" r="12.5" transform="rotate(-90 2537.5 162.5)" fill="#282828"/>
<circle cx="2587.5" cy="162.5" r="12.5" transform="rotate(-90 2587.5 162.5)" fill="#282828"/>
<rect x="2538" y="175" width="25" height="50" transform="rotate(-90 2538 175)" fill="#282828"/>
<circle cx="3237.5" cy="112.5" r="12.5" fill="#282828"/>
<circle cx="3237.5" cy="162.5" r="12.5" fill="#282828"/>
<circle cx="3287.5" cy="112.5" r="12.5" fill="#282828"/>
<circle cx="3287.5" cy="162.5" r="12.5" fill="#282828"/>
<circle cx="3237.5" cy="12.4998" r="12.5" fill="#282828"/>
<circle cx="3237.5" cy="62.4998" r="12.5" fill="#282828"/>
<circle cx="3287.5" cy="12.4998" r="12.5" fill="#282828"/>
<circle cx="3287.5" cy="62.4998" r="12.5" fill="#282828"/>
<circle cx="3037.5" cy="62.4998" r="12.5" fill="#282828"/>
<circle cx="3037.5" cy="112.5" r="12.5" fill="#282828"/>
<circle cx="3087.5" cy="62.4998" r="12.5" fill="#282828"/>
<circle cx="3087.5" cy="112.5" r="12.5" fill="#FFAA00"/>
<rect x="3025" y="62.9998" width="25" height="50" fill="#282828"/>
<circle cx="3187.5" cy="112.5" r="12.5" transform="rotate(180 3187.5 112.5)" fill="#282828"/>
<circle cx="3187.5" cy="62.4998" r="12.5" transform="rotate(180 3187.5 62.4998)" fill="#282828"/>
<circle cx="3137.5" cy="112.5" r="12.5" transform="rotate(180 3137.5 112.5)" fill="#282828"/>
<circle cx="3137.5" cy="62.4998" r="12.5" transform="rotate(180 3137.5 62.4998)" fill="#282828"/>
<rect x="3200" y="112" width="25" height="50" transform="rotate(180 3200 112)" fill="#282828"/>
<circle cx="3137.5" cy="12.4998" r="12.5" transform="rotate(-90 3137.5 12.4998)" fill="#282828"/>
<circle cx="3187.5" cy="12.4998" r="12.5" transform="rotate(-90 3187.5 12.4998)" fill="#282828"/>
<rect x="3138" y="24.9998" width="25" height="50" transform="rotate(-90 3138 24.9998)" fill="#282828"/>
<circle cx="3037.5" cy="12.4998" r="12.5" transform="rotate(-90 3037.5 12.4998)" fill="#282828"/>
<circle cx="3087.5" cy="12.4998" r="12.5" transform="rotate(-90 3087.5 12.4998)" fill="#282828"/>
<rect x="3038" y="24.9998" width="25" height="50" transform="rotate(-90 3038 24.9998)" fill="#282828"/>
<circle cx="3037.5" cy="162.5" r="12.5" transform="rotate(-90 3037.5 162.5)" fill="#282828"/>
<circle cx="3087.5" cy="162.5" r="12.5" transform="rotate(-90 3087.5 162.5)" fill="#282828"/>
<rect x="3038" y="175" width="25" height="50" transform="rotate(-90 3038 175)" fill="#282828"/>
<circle cx="3137.5" cy="162.5" r="12.5" transform="rotate(-90 3137.5 162.5)" fill="#282828"/>
<circle cx="3187.5" cy="162.5" r="12.5" transform="rotate(-90 3187.5 162.5)" fill="#282828"/>
<rect x="3138" y="175" width="25" height="50" transform="rotate(-90 3138 175)" fill="#282828"/>
<circle cx="3537.5" cy="112.5" r="12.5" fill="#282828"/>
<circle cx="3537.5" cy="162.5" r="12.5" fill="#282828"/>
<circle cx="3587.5" cy="112.5" r="12.5" fill="#282828"/>
<circle cx="3587.5" cy="162.5" r="12.5" fill="#282828"/>
<circle cx="3537.5" cy="12.4998" r="12.5" fill="#282828"/>
<circle cx="3537.5" cy="62.4998" r="12.5" fill="#282828"/>
<circle cx="3587.5" cy="12.4998" r="12.5" fill="#282828"/>
<circle cx="3587.5" cy="62.4998" r="12.5" fill="#282828"/>
<circle cx="3337.5" cy="62.4998" r="12.5" fill="#282828"/>
<circle cx="3337.5" cy="112.5" r="12.5" fill="#282828"/>
<circle cx="3387.5" cy="62.4998" r="12.5" fill="#282828"/>
<circle cx="3387.5" cy="112.5" r="12.5" fill="#282828"/>
<rect x="3325" y="62.9998" width="25" height="50" fill="#282828"/>
<circle cx="3487.5" cy="112.5" r="12.5" transform="rotate(180 3487.5 112.5)" fill="#FFAA00"/>
<circle cx="3487.5" cy="62.4998" r="12.5" transform="rotate(180 3487.5 62.4998)" fill="#FFAA00"/>
<circle cx="3437.5" cy="112.5" r="12.5" transform="rotate(180 3437.5 112.5)" fill="#282828"/>
<circle cx="3437.5" cy="62.4998" r="12.5" transform="rotate(180 3437.5 62.4998)" fill="#FFAA00"/>
<rect x="3500" y="112" width="25" height="50" transform="rotate(180 3500 112)" fill="#FFAA00"/>
<circle cx="3437.5" cy="12.4998" r="12.5" transform="rotate(-90 3437.5 12.4998)" fill="#282828"/>
<circle cx="3487.5" cy="12.4998" r="12.5" transform="rotate(-90 3487.5 12.4998)" fill="#282828"/>
<rect x="3438" y="24.9998" width="25" height="50" transform="rotate(-90 3438 24.9998)" fill="#282828"/>
<circle cx="3337.5" cy="12.4998" r="12.5" transform="rotate(-90 3337.5 12.4998)" fill="#282828"/>
<circle cx="3387.5" cy="12.4998" r="12.5" transform="rotate(-90 3387.5 12.4998)" fill="#282828"/>
<rect x="3338" y="24.9998" width="25" height="50" transform="rotate(-90 3338 24.9998)" fill="#282828"/>
<circle cx="3337.5" cy="162.5" r="12.5" transform="rotate(-90 3337.5 162.5)" fill="#282828"/>
<circle cx="3387.5" cy="162.5" r="12.5" transform="rotate(-90 3387.5 162.5)" fill="#282828"/>
<rect x="3338" y="175" width="25" height="50" transform="rotate(-90 3338 175)" fill="#282828"/>
<circle cx="3437.5" cy="162.5" r="12.5" transform="rotate(-90 3437.5 162.5)" fill="#282828"/>
<circle cx="3487.5" cy="162.5" r="12.5" transform="rotate(-90 3487.5 162.5)" fill="#282828"/>
<rect x="3438" y="175" width="25" height="50" transform="rotate(-90 3438 175)" fill="#282828"/>
<circle cx="2937.5" cy="112.5" r="12.5" fill="#282828"/>
<circle cx="2937.5" cy="162.5" r="12.5" fill="#282828"/>
<circle cx="2987.5" cy="112.5" r="12.5" fill="#282828"/>
<circle cx="2987.5" cy="162.5" r="12.5" fill="#282828"/>
<circle cx="2937.5" cy="12.4999" r="12.5" fill="#282828"/>
<circle cx="2937.5" cy="62.4999" r="12.5" fill="#282828"/>
<circle cx="2987.5" cy="12.4999" r="12.5" fill="#282828"/>
<circle cx="2987.5" cy="62.4999" r="12.5" fill="#282828"/>
<circle cx="2737.5" cy="62.4999" r="12.5" fill="#282828"/>
<circle cx="2737.5" cy="112.5" r="12.5" fill="#282828"/>
<circle cx="2787.5" cy="62.4999" r="12.5" fill="#282828"/>
<circle cx="2787.5" cy="112.5" r="12.5" fill="#282828"/>
<rect x="2725" y="62.9999" width="25" height="50" fill="#282828"/>
<circle cx="2887.5" cy="112.5" r="12.5" transform="rotate(180 2887.5 112.5)" fill="#282828"/>
<circle cx="2887.5" cy="62.4999" r="12.5" transform="rotate(180 2887.5 62.4999)" fill="#282828"/>
<circle cx="2837.5" cy="112.5" r="12.5" transform="rotate(180 2837.5 112.5)" fill="#FFAA00"/>
<circle cx="2837.5" cy="62.4999" r="12.5" transform="rotate(180 2837.5 62.4999)" fill="#282828"/>
<rect x="2900" y="112" width="25" height="50" transform="rotate(180 2900 112)" fill="#282828"/>
<circle cx="2837.5" cy="12.4999" r="12.5" transform="rotate(-90 2837.5 12.4999)" fill="#FFAA00"/>
<circle cx="2887.5" cy="12.4999" r="12.5" transform="rotate(-90 2887.5 12.4999)" fill="#FFAA00"/>
<rect x="2838" y="24.9999" width="25" height="50" transform="rotate(-90 2838 24.9999)" fill="#FFAA00"/>
<circle cx="2737.5" cy="12.4999" r="12.5" transform="rotate(-90 2737.5 12.4999)" fill="#282828"/>
<circle cx="2787.5" cy="12.4999" r="12.5" transform="rotate(-90 2787.5 12.4999)" fill="#282828"/>
<rect x="2738" y="24.9999" width="25" height="50" transform="rotate(-90 2738 24.9999)" fill="#282828"/>
<circle cx="2737.5" cy="162.5" r="12.5" transform="rotate(-90 2737.5 162.5)" fill="#282828"/>
<circle cx="2787.5" cy="162.5" r="12.5" transform="rotate(-90 2787.5 162.5)" fill="#282828"/>
<rect x="2738" y="175" width="25" height="50" transform="rotate(-90 2738 175)" fill="#282828"/>
<circle cx="2837.5" cy="162.5" r="12.5" transform="rotate(-90 2837.5 162.5)" fill="#282828"/>
<circle cx="2887.5" cy="162.5" r="12.5" transform="rotate(-90 2887.5 162.5)" fill="#282828"/>
<rect x="2838" y="175" width="25" height="50" transform="rotate(-90 2838 175)" fill="#282828"/>
<circle cx="2337.5" cy="112.5" r="12.5" fill="#282828"/>
<circle cx="2337.5" cy="162.5" r="12.5" fill="#282828"/>
<circle cx="2387.5" cy="112.5" r="12.5" fill="#282828"/>
<circle cx="2387.5" cy="162.5" r="12.5" fill="#282828"/>
<circle cx="2337.5" cy="12.5" r="12.5" fill="#282828"/>
<circle cx="2337.5" cy="62.5" r="12.5" fill="#FFAA00"/>
<circle cx="2387.5" cy="12.5" r="12.5" fill="#282828"/>
<circle cx="2387.5" cy="62.5" r="12.5" fill="#282828"/>
<circle cx="2137.5" cy="62.5" r="12.5" fill="#282828"/>
<circle cx="2137.5" cy="112.5" r="12.5" fill="#282828"/>
<circle cx="2187.5" cy="62.5" r="12.5" fill="#282828"/>
<circle cx="2187.5" cy="112.5" r="12.5" fill="#282828"/>
<rect x="2125" y="63" width="25" height="50" fill="#282828"/>
<circle cx="2287.5" cy="112.5" r="12.5" transform="rotate(180 2287.5 112.5)" fill="#282828"/>
<circle cx="2287.5" cy="62.5" r="12.5" transform="rotate(180 2287.5 62.5)" fill="#282828"/>
<circle cx="2237.5" cy="112.5" r="12.5" transform="rotate(180 2237.5 112.5)" fill="#282828"/>
<circle cx="2237.5" cy="62.5" r="12.5" transform="rotate(180 2237.5 62.5)" fill="#282828"/>
<rect x="2300" y="112" width="25" height="50" transform="rotate(180 2300 112)" fill="#282828"/>
<circle cx="2237.5" cy="12.5" r="12.5" transform="rotate(-90 2237.5 12.5)" fill="#282828"/>
<circle cx="2287.5" cy="12.5" r="12.5" transform="rotate(-90 2287.5 12.5)" fill="#282828"/>
<rect x="2238" y="25" width="25" height="50" transform="rotate(-90 2238 25)" fill="#282828"/>
<circle cx="2137.5" cy="12.5" r="12.5" transform="rotate(-90 2137.5 12.5)" fill="#282828"/>
<circle cx="2187.5" cy="12.5" r="12.5" transform="rotate(-90 2187.5 12.5)" fill="#282828"/>
<rect x="2138" y="25" width="25" height="50" transform="rotate(-90 2138 25)" fill="#282828"/>
<circle cx="2137.5" cy="162.5" r="12.5" transform="rotate(-90 2137.5 162.5)" fill="#282828"/>
<circle cx="2187.5" cy="162.5" r="12.5" transform="rotate(-90 2187.5 162.5)" fill="#282828"/>
<rect x="2138" y="175" width="25" height="50" transform="rotate(-90 2138 175)" fill="#282828"/>
<circle cx="2237.5" cy="162.5" r="12.5" transform="rotate(-90 2237.5 162.5)" fill="#282828"/>
<circle cx="2287.5" cy="162.5" r="12.5" transform="rotate(-90 2287.5 162.5)" fill="#282828"/>
<rect x="2238" y="175" width="25" height="50" transform="rotate(-90 2238 175)" fill="#282828"/>
</g>
<defs>
<clipPath id="clip0_144_2678">
<rect width="3600" height="175" fill="white" transform="translate(0 0.000244141)"/>
</clipPath>
</defs>
</svg>
