<svg xmlns="http://www.w3.org/2000/svg" xmlns:xlink="http://www.w3.org/1999/xlink" width="254.875" height="71.594" viewBox="0 0 254.875 71.594">
  <defs>
    <linearGradient id="Gradient1" x1="0" x2="1" y1="0" y2="0">
      <stop offset="0%" stop-color="#ff7001"/>
      <stop offset="100%" stop-color="#ff5b31"/>
    </linearGradient>
  </defs>
  <path fill="url(#Gradient1)"  d="M328.977,179.222a9.423,9.423,0,0,0,9.423,9.422v0h32.659c10.755,0,19.474,9.139,19.474,20.414s-8.715,20.411-19.465,20.415H317.674V218.162h53.394v0.179a9.29,9.29,0,0,0,0-18.559v0.167H336.519v-0.088a20.726,20.726,0,0,1,0-41.281v-0.09h52.763V169.8H338.289A9.418,9.418,0,0,0,328.977,179.222Zm-20.985,32.035a19.492,19.492,0,0,1-38.9,0l-0.023-.006V176.708h0a8.167,8.167,0,0,0-16.333,0h0v53.4h-11.3V176.7h0.021a19.491,19.491,0,0,1,38.9,0h0.02v34.547l0,0.006a8.167,8.167,0,0,0,16.333,0l0-.006V158.49h11.314v52.761Zm-89.409-34.549h0a8.166,8.166,0,1,0-16.331,0h0v34.549h-0.024a19.491,19.491,0,0,1-38.9,0H163.3V176.708a8.167,8.167,0,0,0-16.333,0V230.1H135.662V176.708h0.024a19.491,19.491,0,0,1,38.9,0h0.025v34.549a8.166,8.166,0,0,0,16.332,0V176.708h0.025a19.491,19.491,0,0,1,38.9,0h0.024V230.1H218.583V176.708Z" transform="translate(-135.656 -158.5)"/>
</svg>
