<svg width="350" height="350" viewBox="0 0 350 350" fill="none" xmlns="http://www.w3.org/2000/svg">
<path d="M175 350C271.65 350 350 271.65 350 175C350 78.3502 271.65 0 175 0C78.3502 0 0 78.3502 0 175C0 271.65 78.3502 350 175 350Z" fill="#F2F2F2"/>
<path fill-rule="evenodd" clip-rule="evenodd" d="M175 345.395C269.106 345.395 345.395 269.106 345.395 175C345.395 80.8936 269.106 4.60526 175 4.60526C80.8936 4.60526 4.60526 80.8936 4.60526 175C4.60526 269.106 80.8936 345.395 175 345.395ZM350 175C350 271.65 271.65 350 175 350C78.3502 350 0 271.65 0 175C0 78.3502 78.3502 0 175 0C271.65 0 350 78.3502 350 175Z" fill="#7C7F82"/>
<g filter="url(#filter0_d_216_42607)">
<path fill-rule="evenodd" clip-rule="evenodd" d="M211.385 227.168C224.471 219.316 241.444 223.559 249.295 236.645L225.602 250.862C249.295 236.645 249.294 236.642 249.295 236.645L249.322 236.69L249.35 236.737L249.411 236.84L249.551 237.079C249.65 237.251 249.77 237.462 249.903 237.705C250.142 238.14 250.546 238.9 250.98 239.855C251.286 240.528 252.226 242.617 252.869 245.404C253.178 246.743 253.762 249.655 253.544 253.372C253.339 256.855 252.187 264.655 245.466 271.377C238.715 278.127 230.807 279.376 226.704 279.517C222.389 279.666 218.919 278.792 216.762 278.073C212.417 276.624 208.538 274.178 205.412 271.051C194.621 260.261 194.621 242.765 205.412 231.974C205.471 231.915 205.531 231.856 205.591 231.797C207.266 230.04 209.203 228.477 211.385 227.168Z" fill="url(#paint0_linear_216_42607)"/>
</g>
<path fill-rule="evenodd" clip-rule="evenodd" d="M125.056 64.4743C140.316 64.5771 152.604 77.0313 152.501 92.2915L151.445 248.87C151.343 264.131 138.888 276.418 123.628 276.315C108.368 276.212 96.0806 263.758 96.1835 248.498L97.239 91.919C97.3419 76.6588 109.796 64.3714 125.056 64.4743Z" fill="#7C7F82"/>
<path fill-rule="evenodd" clip-rule="evenodd" d="M263.125 127.925C273.304 139.294 272.339 156.763 260.969 166.942L142.245 273.231C130.875 283.41 113.407 282.445 103.228 271.075C93.0487 259.706 94.014 242.237 105.384 232.058L224.107 125.768C235.477 115.589 252.946 116.555 263.125 127.925Z" fill="#7C7F82"/>
<defs>
<filter id="filter0_d_216_42607" x="193.318" y="219.226" width="64.2734" height="64.3081" filterUnits="userSpaceOnUse" color-interpolation-filters="sRGB">
<feFlood flood-opacity="0" result="BackgroundImageFix"/>
<feColorMatrix in="SourceAlpha" type="matrix" values="0 0 0 0 0 0 0 0 0 0 0 0 0 0 0 0 0 0 127 0" result="hardAlpha"/>
<feOffset/>
<feGaussianBlur stdDeviation="2"/>
<feComposite in2="hardAlpha" operator="out"/>
<feColorMatrix type="matrix" values="0 0 0 0 0.0666667 0 0 0 0 0.0666667 0 0 0 0 0.0666667 0 0 0 0.25 0"/>
<feBlend mode="normal" in2="BackgroundImageFix" result="effect1_dropShadow_216_42607"/>
<feBlend mode="normal" in="SourceGraphic" in2="effect1_dropShadow_216_42607" result="shape"/>
</filter>
<linearGradient id="paint0_linear_216_42607" x1="225.602" y1="250.862" x2="226.25" y2="251.57" gradientUnits="userSpaceOnUse">
<stop stop-color="#FFAA00"/>
<stop offset="1" stop-color="#C5690C"/>
</linearGradient>
</defs>
</svg>
