<svg width="100" height="100" viewBox="0 0 100 100" fill="none" xmlns="http://www.w3.org/2000/svg">
<rect x="1.25" y="1.25" width="97.5" height="97.5" rx="13.75" fill="#1C1C1C"/>
<g clip-path="url(#clip0_158_161)">
<path d="M29 72.1666C29 69.2935 30.1257 66.538 32.1295 64.5063C34.1334 62.4747 36.8511 61.3333 39.6849 61.3333H50.3699V72.1666C50.3699 75.0398 49.2441 77.7953 47.2403 79.827C45.2365 81.8586 42.5187 83 39.6849 83C36.8511 83 34.1334 81.8586 32.1295 79.827C30.1257 77.7953 29 75.0398 29 72.1666V72.1666Z" fill="#0ACF83"/>
<path d="M50.3699 50.5C50.3699 47.6268 51.4956 44.8713 53.4994 42.8397C55.5032 40.8081 58.221 39.6667 61.0548 39.6667C63.8886 39.6667 66.6064 40.8081 68.6102 42.8397C70.614 44.8713 71.7397 47.6268 71.7397 50.5C71.7397 53.3732 70.614 56.1287 68.6102 58.1603C66.6064 60.192 63.8886 61.3333 61.0548 61.3333C58.221 61.3333 55.5032 60.192 53.4994 58.1603C51.4956 56.1287 50.3699 53.3732 50.3699 50.5V50.5Z" fill="#1ABCFE"/>
<path d="M29 50.5C29 53.3732 30.1257 56.1287 32.1295 58.1603C34.1334 60.192 36.8511 61.3333 39.6849 61.3333H50.3699V39.6667H39.6849C36.8511 39.6667 34.1334 40.8081 32.1295 42.8397C30.1257 44.8713 29 47.6268 29 50.5V50.5Z" fill="#A259FF"/>
<path d="M50.3699 18V39.6667H61.0548C63.8886 39.6667 66.6064 38.5253 68.6102 36.4936C70.614 34.462 71.7397 31.7065 71.7397 28.8333C71.7397 25.9602 70.614 23.2047 68.6102 21.173C66.6064 19.1414 63.8886 18 61.0548 18H50.3699Z" fill="#FF7262"/>
<path d="M29 28.8333C29 31.7065 30.1257 34.462 32.1295 36.4937C34.1334 38.5253 36.8511 39.6667 39.6849 39.6667H50.3699V18H39.6849C36.8511 18 34.1334 19.1414 32.1295 21.173C30.1257 23.2047 29 25.9602 29 28.8333V28.8333Z" fill="#F24E1E"/>
</g>
<rect x="1.25" y="1.25" width="97.5" height="97.5" rx="13.75" stroke="#2B2B2B" stroke-width="2.5"/>
<defs>
<clipPath id="clip0_158_161">
<rect width="42.7397" height="65" fill="white" transform="translate(29 18)"/>
</clipPath>
</defs>
</svg>
