<svg width="100" height="100" viewBox="0 0 100 100" fill="none" xmlns="http://www.w3.org/2000/svg">
<rect width="100" height="100" fill="#2C2C2C"/>
<g clip-path="url(#clip0_158_161)">
<path d="M26 74.8334C26 71.6066 27.2643 68.5119 29.5147 66.2302C31.7652 63.9485 34.8174 62.6667 38 62.6667H50V74.8334C50 78.0602 48.7357 81.1548 46.4853 83.4365C44.2348 85.7182 41.1826 87 38 87C34.8174 87 31.7652 85.7182 29.5147 83.4365C27.2643 81.1548 26 78.0602 26 74.8334V74.8334Z" fill="#0ACF83"/>
<path d="M50 50.5C50 47.2732 51.2643 44.1785 53.5147 41.8968C55.7652 39.6152 58.8174 38.3333 62 38.3333C65.1826 38.3333 68.2348 39.6152 70.4853 41.8968C72.7357 44.1785 74 47.2732 74 50.5C74 53.7268 72.7357 56.8214 70.4853 59.1031C68.2348 61.3848 65.1826 62.6666 62 62.6666C58.8174 62.6666 55.7652 61.3848 53.5147 59.1031C51.2643 56.8214 50 53.7268 50 50.5V50.5Z" fill="#1ABCFE"/>
<path d="M26 50.5C26 53.7268 27.2643 56.8214 29.5147 59.1031C31.7652 61.3848 34.8174 62.6666 38 62.6666H50V38.3333H38C34.8174 38.3333 31.7652 39.6152 29.5147 41.8968C27.2643 44.1785 26 47.2732 26 50.5V50.5Z" fill="#A259FF"/>
<path d="M50 14V38.3333H62C65.1826 38.3333 68.2348 37.0515 70.4853 34.7698C72.7357 32.4881 74 29.3935 74 26.1667C74 22.9399 72.7357 19.8452 70.4853 17.5635C68.2348 15.2818 65.1826 14 62 14H50Z" fill="#FF7262"/>
<path d="M26 26.1667C26 29.3935 27.2643 32.4881 29.5147 34.7698C31.7652 37.0515 34.8174 38.3333 38 38.3333H50V14H38C34.8174 14 31.7652 15.2818 29.5147 17.5635C27.2643 19.8452 26 22.9399 26 26.1667V26.1667Z" fill="#F24E1E"/>
</g>
<defs>
<clipPath id="clip0_158_161">
<rect width="48" height="73" fill="white" transform="translate(26 14)"/>
</clipPath>
</defs>
</svg>
