<svg width="100" height="100" viewBox="0 0 100 100" fill="none" xmlns="http://www.w3.org/2000/svg">
<rect x="1.25" y="1.25" width="97.5" height="97.5" rx="13.75" fill="#1C1C1C"/>
<g clip-path="url(#clip0_173_161)">
<path d="M21.911 20.8034L57.8775 18.1469C62.2955 17.7679 63.4304 18.0234 66.2085 20.0429L77.6895 28.1309C79.5829 29.5219 80.2134 29.9008 80.2134 31.4153V75.7733C80.2134 78.5533 79.204 80.1978 75.6699 80.4487L33.9035 82.9785C31.2515 83.104 29.9886 82.725 28.5995 80.9551L20.145 69.961C18.6285 67.9375 18 66.423 18 64.6524V25.2234C18 22.9504 19.0094 21.055 21.911 20.8034Z" fill="white"/>
<path fill-rule="evenodd" clip-rule="evenodd" d="M57.8775 18.1475L21.911 20.8041C19.0094 21.055 18 22.951 18 25.2234V64.6524C18 66.4224 18.6285 67.9369 20.145 69.961L28.5995 80.9544C29.9886 82.7244 31.2515 83.104 33.9035 82.9779L75.6706 80.4494C79.202 80.1978 80.2141 78.5533 80.2141 75.7739V31.416C80.2141 29.9795 79.6467 29.5654 77.9762 28.3395L66.2085 20.0429C63.4311 18.0234 62.2955 17.7679 57.8775 18.1469V18.1475ZM34.848 30.6899C31.4374 30.9194 30.6639 30.9714 28.7269 29.3964L23.8025 25.4795C23.302 24.9725 23.5536 24.3401 24.8146 24.214L59.39 21.6874C62.2936 21.4339 63.8055 22.446 64.9411 23.33L70.871 27.6265C71.1245 27.7545 71.755 28.5105 70.9964 28.5105L35.29 30.66L34.848 30.6899ZM30.8719 75.395V37.7385C30.8719 36.094 31.377 35.3355 32.8889 35.2081L73.9 32.807C75.291 32.6815 75.9195 33.5655 75.9195 35.2074V72.613C75.9195 74.2575 75.666 75.6485 73.3956 75.7739L34.1505 78.0489C31.8801 78.1744 30.8726 77.4184 30.8726 75.395H30.8719ZM69.6119 39.7574C69.8635 40.8949 69.6119 42.0324 68.4744 42.1624L66.5829 42.5375V70.3399C64.9404 71.2239 63.4285 71.729 62.1649 71.729C60.1453 71.729 59.6409 71.0965 58.1284 69.2024L45.7589 49.7414V68.57L49.6719 69.4559C49.6719 69.4559 49.6719 71.7309 46.5148 71.7309L37.8113 72.236C37.5578 71.729 37.8113 70.466 38.6934 70.2145L40.9664 69.584V44.689L37.812 44.4335C37.5585 43.296 38.189 41.6535 39.957 41.5261L49.2955 40.8975L62.1655 60.6101V43.1706L58.885 42.7936C58.6315 41.4006 59.6409 40.3886 60.9019 40.2651L69.6119 39.7574Z" fill="black"/>
</g>
<rect x="1.25" y="1.25" width="97.5" height="97.5" rx="13.75" stroke="#2B2B2B" stroke-width="2.5"/>
<defs>
<clipPath id="clip0_173_161">
<rect width="65" height="65" fill="white" transform="translate(18 18)"/>
</clipPath>
</defs>
</svg>
