<svg width="100" height="100" viewBox="0 0 100 100" fill="none" xmlns="http://www.w3.org/2000/svg">
<rect x="1.25" y="1.25" width="97.5" height="97.5" rx="13.75" fill="#1C1C1C"/>
<g clip-path="url(#clip0_164_186)">
<path d="M69.9282 72.2571C66.4925 74.5241 62.5647 75.7256 58.5588 75.7256C52.0013 75.7256 45.7841 72.5175 41.5008 66.9242C41.4855 66.905 41.471 66.8873 41.4557 66.8681C38.1706 62.9687 36.2086 57.2401 36.0733 51.1863L36.0725 49.7658C36.2085 43.6762 38.1705 37.9481 41.5 33.9932C45.7839 28.3999 52.002 25.1918 58.5592 25.1918C62.5656 25.1918 66.4941 26.3933 69.9319 28.6618C76.0661 34.2229 79.5844 42.1594 79.5844 50.4592C79.5844 58.7597 76.0655 66.6969 69.9297 72.2577M49.0087 79.7693C33.4243 79.0341 21.2155 66.1596 21.2155 50.4587C21.2155 34.2782 34.3074 21.1135 50.4286 21.1135C50.4354 21.1135 50.5019 21.1143 50.5096 21.1143C53.0621 21.1235 55.5788 21.4684 58.0021 22.1252C50.6967 22.3004 43.8277 25.9194 39.1241 32.0628C35.395 36.4885 33.1695 42.9161 33.0182 49.7305V51.22C33.1694 57.9849 35.3858 64.4004 39.1012 68.8272C43.8472 75.0082 50.7093 78.6165 58.0038 78.7917C55.1037 79.5783 52.0263 79.9132 49.0076 79.7688M71.8876 26.2929C66.0063 21.0014 58.418 18.0715 50.4869 18.0415C50.477 18.0407 50.409 18.0399 50.3998 18.0399C32.6223 18.0399 18.1587 32.5831 18.1587 50.4581C18.1587 67.803 31.6462 82.0268 48.8667 82.8382C49.3748 82.862 49.8859 82.8751 50.4 82.8751C58.3365 82.8751 65.9653 79.9474 71.8781 74.6298L71.8849 74.6252C78.7197 68.478 82.6399 59.6696 82.6399 50.4575C82.6399 41.2467 78.7208 32.4387 71.8876 26.2929Z" fill="#FA1E4E"/>
<path d="M56.3074 30.0374C62.0591 33.7512 66.0194 41.5166 66.0194 50.5C66.0194 59.4834 62.0591 67.2498 56.3074 70.9627C63.6492 70.3509 69.4755 61.4245 69.4755 50.5C69.4755 39.5753 63.649 30.6492 56.3074 30.0374Z" fill="#FA1E4E"/>
</g>
<rect x="1.25" y="1.25" width="97.5" height="97.5" rx="13.75" stroke="#2B2B2B" stroke-width="2.5"/>
<defs>
<clipPath id="clip0_164_186">
<rect width="65" height="65" fill="white" transform="translate(18 18)"/>
</clipPath>
</defs>
</svg>
