<svg width="100" height="100" viewBox="0 0 100 100" fill="none" xmlns="http://www.w3.org/2000/svg">
<rect x="1.25" y="1.25" width="97.5" height="97.5" rx="13.75" fill="#1C1C1C"/>
<path fill-rule="evenodd" clip-rule="evenodd" d="M59.3867 22.7988C59.8691 23.4082 60.123 24.2461 60.6309 25.8965L71.625 62.0273C67.4863 59.8945 63.0684 58.3711 58.4727 57.584L51.3125 33.3867C51.1602 32.9043 50.6523 32.5996 50.1445 32.752C49.8398 32.8535 49.6113 33.082 49.5098 33.3867L42.4258 57.5586C37.8301 58.3711 33.3613 59.8691 29.2227 62.0273L40.3184 25.8965C40.8262 24.2461 41.0801 23.4082 41.5625 22.7988C41.9941 22.2656 42.5527 21.834 43.2129 21.5801C43.9492 21.3008 44.8125 21.3008 46.5391 21.3008H54.4355C56.1621 21.3008 57.0254 21.3008 57.7617 21.5801C58.3965 21.834 58.9551 22.2656 59.3867 22.7988Z" fill="white"/>
<path fill-rule="evenodd" clip-rule="evenodd" d="M60.707 63.7285C58.9043 65.2773 55.2735 66.3437 51.1094 66.3437C45.9805 66.3437 41.7149 64.7441 40.5723 62.6113C40.166 63.8301 40.0645 65.252 40.0645 66.1406C40.0645 66.1406 39.7852 70.5586 42.8574 73.6055C42.8574 72.0059 44.1524 70.7109 45.7266 70.7109C48.4434 70.7109 48.4434 73.0977 48.4434 75.0273V75.2051C48.4434 78.0488 50.1445 80.6133 52.7852 81.7051C52.4043 80.8926 52.2012 80.0039 52.2012 79.1152C52.2012 76.3223 53.8516 75.2813 55.7559 74.0625C57.2793 73.0977 58.9551 72.0312 60.1231 69.8984C60.7578 68.7305 61.0625 67.4609 61.0625 66.1406C61.0879 65.3027 60.9356 64.4902 60.707 63.7285Z" fill="#FF5D01"/>
<path fill-rule="evenodd" clip-rule="evenodd" d="M60.707 63.7285C58.9043 65.2773 55.2735 66.3437 51.1094 66.3437C45.9805 66.3437 41.7149 64.7441 40.5723 62.6113C40.166 63.8301 40.0645 65.252 40.0645 66.1406C40.0645 66.1406 39.7852 70.5586 42.8574 73.6055C42.8574 72.0059 44.1524 70.7109 45.7266 70.7109C48.4434 70.7109 48.4434 73.0977 48.4434 75.0273V75.2051C48.4434 78.0488 50.1445 80.6133 52.7852 81.7051C52.4043 80.8926 52.2012 80.0039 52.2012 79.1152C52.2012 76.3223 53.8516 75.2813 55.7559 74.0625C57.2793 73.0977 58.9551 72.0312 60.1231 69.8984C60.7578 68.7305 61.0625 67.4609 61.0625 66.1406C61.0879 65.3027 60.9356 64.4902 60.707 63.7285Z" fill="url(#paint0_linear_191_294)"/>
<rect x="1.25" y="1.25" width="97.5" height="97.5" rx="13.75" stroke="#2B2B2B" stroke-width="2.5"/>
<defs>
<linearGradient id="paint0_linear_191_294" x1="59.6772" y1="46.7412" x2="48.9421" y2="69.2093" gradientUnits="userSpaceOnUse">
<stop stop-color="#FF1639"/>
<stop offset="1" stop-color="#FF1639" stop-opacity="0"/>
</linearGradient>
</defs>
</svg>
