<svg width="100" height="100" viewBox="0 0 100 100" fill="none" xmlns="http://www.w3.org/2000/svg">
<rect x="1.25" y="1.25" width="97.5" height="97.5" rx="13.75" fill="#1C1C1C"/>
<path d="M77.7807 68.0931C74.1909 68.0036 71.4086 68.3626 69.0751 69.3497C68.4019 69.6187 67.3248 69.619 67.235 70.4717C67.5941 70.8307 67.6389 71.4142 67.9531 71.9076C68.4922 72.8049 69.4339 74.0167 70.2866 74.6453C71.2288 75.3631 72.1715 76.0809 73.1584 76.7092C74.9087 77.7863 76.8834 78.4144 78.5886 79.4915C79.5762 80.1193 80.5628 80.9277 81.5501 81.6006C82.0438 81.9591 82.3577 82.5431 82.9863 82.7672V82.6328C82.6719 82.2287 82.5821 81.6455 82.2682 81.1967C81.8199 80.7479 81.3706 80.344 80.9218 79.8952C79.6206 78.1454 78.0051 76.6195 76.2551 75.3631C74.8192 74.3757 71.6776 73.0296 71.0944 71.369C71.0944 71.369 71.0493 71.3244 71.0047 71.2795C71.9918 71.1898 73.1584 70.8307 74.1011 70.5615C75.6268 70.1573 77.0178 70.2473 78.5886 69.8434C79.3064 69.6639 80.0245 69.4395 80.7423 69.2151V68.8114C79.935 68.0036 79.3515 66.9267 78.4988 66.1638C76.2102 64.1888 73.6969 62.2595 71.0944 60.6441C69.7031 59.7465 67.908 59.163 66.4272 58.4003C65.8891 58.1308 64.9913 57.9964 64.6774 57.5476C63.8693 56.5605 63.4205 55.2593 62.8373 54.0924C61.5363 51.624 60.2794 48.8868 59.1574 46.2843C58.3501 44.534 57.8564 42.7837 56.8691 41.1685C52.247 33.5397 47.2209 28.9176 39.5026 24.385C37.8421 23.4428 35.8676 23.0389 33.7585 22.5455C32.6371 22.5003 31.5148 22.4108 30.3931 22.3657C29.675 22.0515 28.9569 21.1991 28.3286 20.7952C25.7712 19.1795 19.1742 15.6796 17.2895 20.3017C16.0777 23.2184 19.0847 26.0902 20.1164 27.5715C20.8798 28.6035 21.8667 29.7701 22.4052 30.937C22.7194 31.6994 22.8089 32.5078 23.1231 33.3153C23.8414 35.2893 24.5141 37.4887 25.4568 39.3287C25.9505 40.2709 26.4888 41.258 27.1171 42.1108C27.4761 42.6042 28.1042 42.8288 28.2391 43.6364C27.611 44.534 27.5659 45.8804 27.2066 47.0021C25.5912 52.073 26.2198 58.3554 28.5081 62.08C29.2259 63.2014 30.9314 65.6703 33.22 64.7276C35.2396 63.92 34.7908 61.3621 35.3737 59.1184C35.5089 58.5793 35.4191 58.2208 35.6881 57.8618V57.9518C36.3164 59.2079 36.9445 60.4199 37.5279 61.6763C38.9192 63.8749 41.3422 66.1638 43.3615 67.6897C44.4389 68.497 45.2914 69.8883 46.6378 70.3819V70.247H46.5477C46.2785 69.8431 45.8745 69.6639 45.5158 69.3494C44.7082 68.5421 43.8103 67.5548 43.1823 66.6572C41.2978 64.1439 39.637 61.3619 38.1563 58.4898C37.4384 57.0991 36.8099 55.5732 36.2267 54.1821C35.9571 53.6431 35.9571 52.8357 35.5086 52.5667C34.8354 53.5538 33.8483 54.4065 33.3546 55.618C32.5024 57.5476 32.4124 59.926 32.0983 62.3939C31.9187 62.4392 32.0082 62.3939 31.9185 62.4841C30.4828 62.1246 29.9892 60.6441 29.4503 59.3874C28.1039 56.2015 27.8795 51.0857 29.0467 47.4061C29.3608 46.4636 30.7072 43.502 30.1687 42.6044C29.8994 41.7517 29.0015 41.258 28.5081 40.5851C27.9249 39.7324 27.2964 38.6558 26.8927 37.7131C25.8156 35.2 25.277 32.4177 24.1104 29.9047C23.5719 28.7379 22.6299 27.5266 21.8667 26.4495C21.0142 25.238 20.0718 24.385 19.3986 22.9491C19.1744 22.4557 18.86 21.6479 19.219 21.1093C19.3088 20.7503 19.4881 20.6159 19.8474 20.5261C20.4308 20.0322 22.0913 20.6605 22.6743 20.9298C24.3348 21.6025 25.7258 22.2313 27.1171 23.1735C27.7452 23.6223 28.4184 24.4751 29.2259 24.6995H30.1684C31.6046 25.0134 33.2197 24.7892 34.5661 25.1929C36.9448 25.9556 39.0985 27.0776 41.0283 28.2893C46.907 32.0138 51.753 37.3091 55.0293 43.6364C55.5678 44.6681 55.792 45.6111 56.2856 46.6877C57.2284 48.8868 58.395 51.1306 59.3369 53.2845C60.2794 55.3934 61.1768 57.5476 62.5232 59.2979C63.1963 60.2399 65.8886 60.7338 67.1004 61.2275C67.998 61.6312 69.3892 61.9904 70.1968 62.4839C71.7225 63.4258 73.2481 64.5035 74.6843 65.5352C75.4024 66.0737 77.6458 67.1957 77.7807 68.0931Z" fill="#00546B"/>
<path d="M32.008 29.0967C31.2453 29.0967 30.707 29.187 30.1685 29.3213V29.4111H30.2582C30.6175 30.1292 31.2453 30.6229 31.6939 31.2509C32.0532 31.9687 32.3671 32.6871 32.7263 33.4051C32.771 33.36 32.8159 33.3154 32.8159 33.3154C33.4444 32.8663 33.7583 32.1485 33.7583 31.0714C33.489 30.7575 33.4442 30.4433 33.2198 30.1292C32.9507 29.6801 32.3671 29.456 32.008 29.0967Z" fill="#00546B"/>
<rect x="1.25" y="1.25" width="97.5" height="97.5" rx="13.75" stroke="#2B2B2B" stroke-width="2.5"/>
</svg>
