<svg width="100" height="100" viewBox="0 0 100 100" fill="none" xmlns="http://www.w3.org/2000/svg">
<rect x="1.25" y="1.25" width="97.5" height="97.5" rx="13.75" fill="#1C1C1C"/>
<path d="M18.8408 39.783H29.7615C32.9668 39.8099 35.2895 40.7341 36.7295 42.554C38.1696 44.3738 38.6447 46.8595 38.1557 50.011C37.9658 51.4511 37.5445 52.8634 36.8925 54.2489C36.2589 55.647 35.375 56.9175 34.2846 57.9978C32.926 59.4102 31.4729 60.3066 29.9245 60.6872C28.376 61.0678 26.773 61.2577 25.1161 61.2577H20.2262L18.6778 69H13.0137L18.8408 39.783ZM23.6084 44.4284L21.1635 56.6531C21.3264 56.68 21.4894 56.6938 21.6524 56.6938H22.2229C24.8309 56.7207 27.0044 56.4632 28.7427 55.9196C30.4811 55.3491 31.6498 53.3663 32.2472 49.9703C32.7361 47.1178 32.2472 45.474 30.7802 45.0396C29.3401 44.6052 27.5341 44.4015 25.3606 44.4284C25.0346 44.4553 24.7224 44.4692 24.4234 44.4692H23.5676L23.6084 44.4284ZM44.6079 32H50.2313L48.642 39.783H53.6949C56.4658 39.8376 58.5302 40.4081 59.8887 41.4945C61.2742 42.5809 61.6817 44.646 61.1112 47.6883L58.381 61.2577H52.6762L55.2841 48.2996C55.5555 46.941 55.474 45.9769 55.0396 45.4064C54.6052 44.8359 53.668 44.5507 52.228 44.5507L47.7048 44.5099L44.3634 61.2577H38.7401L44.6079 32ZM67.1497 39.783H78.0704C81.2758 39.8099 83.5985 40.7341 85.0385 42.554C86.4786 44.3738 86.9537 46.8595 86.4647 50.011C86.2748 51.4511 85.8535 52.8634 85.2015 54.2489C84.5678 55.647 83.684 56.9175 82.5936 57.9978C81.235 59.4102 79.7819 60.3066 78.2334 60.6872C76.685 61.0678 75.0819 61.2577 73.4251 61.2577H68.5352L66.9867 69H61.3226L67.1497 39.783ZM71.9174 44.4284L69.4724 56.6531C69.6354 56.68 69.7984 56.6938 69.9614 56.6938H70.5319C73.1398 56.7207 75.3134 56.4632 77.0517 55.9196C78.7901 55.3491 79.9587 53.3663 80.5561 49.9703C81.0451 47.1178 80.5561 45.474 79.0892 45.0396C77.6491 44.6052 75.8431 44.4015 73.6696 44.4284C73.3436 44.4553 73.0314 44.4692 72.7323 44.4692H71.8766L71.9174 44.4284Z" fill="#F2F2F2"/>
<rect x="1.25" y="1.25" width="97.5" height="97.5" rx="13.75" stroke="#2B2B2B" stroke-width="2.5"/>
</svg>
